<?xml version="1.0" encoding="utf-8"?>
<!-- Generator: Adobe Illustrator 23.0.1, SVG Export Plug-In . SVG Version: 6.00 Build 0)  -->
<!DOCTYPE svg PUBLIC "-//W3C//DTD SVG 1.1//EN" "http://www.w3.org/Graphics/SVG/1.1/DTD/svg11.dtd" [
	<!ENTITY ns_extend "http://ns.adobe.com/Extensibility/1.0/">
	<!ENTITY ns_ai "http://ns.adobe.com/AdobeIllustrator/10.0/">
	<!ENTITY ns_graphs "http://ns.adobe.com/Graphs/1.0/">
	<!ENTITY ns_vars "http://ns.adobe.com/Variables/1.0/">
	<!ENTITY ns_imrep "http://ns.adobe.com/ImageReplacement/1.0/">
	<!ENTITY ns_sfw "http://ns.adobe.com/SaveForWeb/1.0/">
	<!ENTITY ns_custom "http://ns.adobe.com/GenericCustomNamespace/1.0/">
	<!ENTITY ns_adobe_xpath "http://ns.adobe.com/XPath/1.0/">
]>
<svg version="1.1"
	 id="svg2" xmlns:x="&ns_extend;" xmlns:i="&ns_ai;" xmlns:graph="&ns_graphs;" inkscape:version="0.92.2 (5c3e80d, 2017-08-06)" sodipodi:docname="2018 European Championships Logo.svg" xmlns:cc="http://creativecommons.org/ns#" xmlns:dc="http://purl.org/dc/elements/1.1/" xmlns:inkscape="http://www.inkscape.org/namespaces/inkscape" xmlns:rdf="http://www.w3.org/1999/02/22-rdf-syntax-ns#" xmlns:sodipodi="http://sodipodi.sourceforge.net/DTD/sodipodi-0.dtd" xmlns:svg="http://www.w3.org/2000/svg"
	 xmlns="http://www.w3.org/2000/svg" xmlns:xlink="http://www.w3.org/1999/xlink" x="0px" y="0px" viewBox="0 0 1000 854.7"
	 style="enable-background:new 0 0 1000 854.7;" xml:space="preserve">
<style type="text/css">
	.st0{fill:#9D9FA2;}
	.st1{fill:#8A8C8E;}
	.st2{fill:#27AAE2;}
	.st3{fill:#F9E925;}
	.st4{fill:#C40A66;}
	.st5{fill:#009DD9;}
	.st6{fill:#D82820;}
	.st7{fill:#EE7A24;}
	.st8{fill:#E53229;}
	.st9{fill:#EEDB00;}
	.st10{fill:#DCCB00;}
	.st11{fill:#008AC0;}
	.st12{fill:#57B04B;}
	.st13{fill:#BA241A;}
	.st14{fill:#48A841;}
	.st15{fill:#C9651A;}
	.st16{fill:#DC6F1C;}
	.st17{fill:#B1105D;}
	.st18{fill:#9A1351;}
	.st19{fill:#3F9539;}
</style>
<metadata  id="metadata8">
	<rdf:RDF>
		<cc:Work  rdf:about="">
			<dc:format>image/svg+xml</dc:format>
			<dc:type  rdf:resource="http://purl.org/dc/dcmitype/StillImage"></dc:type>
			<dc:title></dc:title>
		</cc:Work>
	</rdf:RDF>
	<sfw  xmlns="&ns_sfw;">
		<slices></slices>
		<sliceSourceBounds  bottomLeftOrigin="true" height="854.7" width="1000" x="0" y="85"></sliceSourceBounds>
	</sfw>
</metadata>
<g>
	<g>
		<path id="path40736" inkscape:connector-curvature="0" class="st0" d="M144.4,747.3c6.4,0,12.4-1.2,17.9-3.6
			c5.5-2.4,10.5-5.7,14.7-9.9c4.2-4.1,7.6-9.1,9.9-14.7c2.4-5.6,3.7-11.6,3.7-17.9v-71v-0.6c0-2.3-0.8-4.3-2.3-6
			c-3.2-3.3-8.7-3.3-11.9,0c-1.6,1.6-2.4,3.7-2.4,6v10.2v61.4c0,4-0.8,7.9-2.4,11.4c-1.6,3.6-3.7,6.8-6.4,9.4
			c-2.6,2.7-5.8,4.8-9.4,6.3c-1.8,0.8-6.8,2.2-11.8,2.2s-10-1.4-11.8-2.2c-3.6-1.5-6.8-3.6-9.4-6.3c-2.6-2.7-4.8-5.9-6.3-9.4
			c-1.6-3.5-2.4-7.4-2.4-11.4v-26.9v-44.7c0-2.3-0.8-4.3-2.4-6c-3.2-3.3-8.7-3.3-11.9,0c-1.6,1.6-2.3,3.7-2.3,6v54.3v17.3
			c0,6.3,1.2,12.3,3.6,17.9c2.4,5.6,5.8,10.5,10,14.7c4.2,4.2,9.2,7.5,14.7,9.9c5.5,2.4,11.6,3.6,17.9,3.6H144.4z"/>
		<path id="path40740" inkscape:connector-curvature="0" class="st0" d="M267.5,698.3l-1.5-2.3c3-1.2,5.9-2.8,8.6-4.7
			c2.3-1.7,4.5-3.6,6.4-5.7c0.8-0.9,1.6-1.7,2.3-2.7c1.6-2,2.9-4.2,4-6.6c0.6-1.4,1.2-2.7,1.7-4.2c1.4-3.9,2.1-8.1,2.1-12.4
			c0-5.3-1.1-10.4-3.1-15.1c-2.1-4.7-4.8-8.8-8.3-12.3c-3.4-3.4-7.6-6.2-12.3-8.2s-9.8-3.1-15.1-3.1h-39.9c-2.6,0-4.7,0.8-6.2,2.5
			c-1.2,1.3-1.9,2.9-2.2,4.7c0,0.4-0.1,0.8-0.1,1.3l0,109.6c0,2.4,0.8,4.5,2.3,5.9c1.5,1.4,3.5,2.2,6,2.2c2.3,0,4.3-0.8,5.8-2.2
			c1.6-1.5,2.3-3.5,2.3-5.9l0-101.4h31.9c3,0,5.8,0.6,8.5,1.7c2.7,1.1,5.1,2.7,7,4.8c2,2,3.6,4.5,4.8,7.1c1.1,2.6,1.7,5.5,1.7,8.5
			c0,2.9-0.5,5.7-1.6,8.2c0,0.1-0.1,0.2-0.1,0.3c-1.2,2.7-2.7,5-4.7,7c-2,2-4.4,3.6-7,4.7c-2.7,1.2-5.6,1.8-8.5,1.8h-28.4l10.6,16.6
			h13l28.6,44.8c1.1,2.1,2.9,3.4,5.1,4.1c0.7,0.2,1.4,0.3,2,0.3c1.6,0,3.1-0.6,4.5-1.6c2-1.5,3.2-3.3,3.5-5.4c0.3-2.1,0-4-1.1-5.8
			L267.5,698.3z"/>
		<path id="path40744" inkscape:connector-curvature="0" class="st0" d="M320.1,655.9c1.5-3.6,3.7-6.8,6.3-9.4
			c2.7-2.7,5.9-4.8,9.5-6.4c3.5-1.6,7.4-2.4,11.4-2.4c3.9,0,7.6,0.8,11.2,2.2c3.5,1.5,6.8,3.7,9.7,6.7c3,2.8,5.2,6.1,6.7,9.6
			c1.5,3.5,2.2,7.3,2.2,11.2v33.8c0,4.1-0.8,7.9-2.4,11.4c-1.6,3.6-3.7,6.8-6.4,9.4c-0.2,0.2-0.4,0.4-0.6,0.6
			c-0.1,0.1-0.2,0.2-0.3,0.3c-2.4,2.3-5.3,4.1-8.4,5.4c-7.2,3-15.9,3-23,0c-3.5-1.5-6.7-3.7-9.4-6.4c-2.7-2.7-4.8-5.9-6.3-9.4
			c-1.5-3.5-2.3-7.4-2.3-11.4v-7.3v-26.5C317.8,663.3,318.6,659.4,320.1,655.9 M301,701.2c0,6.3,1.2,12.3,3.6,17.9
			c2.4,5.6,5.7,10.5,9.9,14.7c4.1,4.1,9.1,7.5,14.7,9.9c5.6,2.4,11.7,3.6,18.1,3.6c6.4,0,12.4-1.2,18-3.6c5.5-2.4,10.5-5.7,14.6-9.9
			c0.8-0.8,1.6-1.7,2.4-2.6c3-3.6,5.5-7.6,7.5-12.1c2.4-5.6,3.6-11.6,3.6-17.9l0-33.8c0-6.2-1.1-12.1-3.4-17.7
			c-2.2-5.6-5.6-10.7-10-15.1c-4.5-4.4-9.6-7.7-15.1-10c-11.4-4.7-24.7-4.6-35.8,0.2c-5.6,2.4-10.5,5.8-14.7,10
			c-4.1,4.2-7.5,9.1-9.9,14.7c-2.4,5.6-3.6,11.6-3.6,18v16.8V701.2z"/>
		<path id="path40748" inkscape:connector-curvature="0" class="st0" d="M406.8,739.2c0,2.5,0.9,4.5,2.6,6c1.6,1.5,3.6,2.2,5.9,2.2
			c2.4,0,4.4-0.8,5.9-2.2c1.6-1.5,2.4-3.5,2.4-5.9v-17.5v-83.9h31.5c3,0,5.8,0.6,8.4,1.7c2.7,1.1,5,2.7,7,4.8c2,2.1,3.6,4.5,4.7,7.1
			c1.1,2.6,1.7,5.5,1.7,8.5c0,3-0.6,5.8-1.7,8.4c-1.2,2.7-2.8,5-4.7,7c-2,2-4.3,3.6-7,4.7c-2.6,1.1-5.4,1.7-8.4,1.7h-28.3l10.6,16.6
			h17.7c5.2,0,10.2-1,14.9-3c4.7-2,8.8-4.7,12.3-8.2c0.5-0.5,1-1,1.4-1.6c2.9-3.1,5.2-6.7,6.9-10.7c2-4.7,3.1-9.8,3.1-15.1
			c0-5.3-1-10.4-3.1-15.1c-2-4.7-4.9-8.8-8.4-12.3c-3.5-3.4-7.7-6.2-12.3-8.2c-4.7-2-9.7-3.1-14.9-3.1h-39.6c-2.4,0-4.5,0.8-6.2,2.5
			c-1.6,1.6-2.5,3.6-2.5,6l0,101.8V739.2z"/>
		<path id="path40752" inkscape:connector-curvature="0" class="st0" d="M691.5,746.9c5.9-2.4,5.9-7.9,5.1-10.5l0,0
			c-4-11.7-8-23.3-12-34.9c-0.8-2.4-1.6-4.7-2.4-7c-1.5-4.2-2.9-8.5-4.4-12.7c-3.6-10.4-7.2-20.8-10.8-31.2
			c-2.7-7.8-5.4-15.7-8.1-23.7c-2-4.6-5.3-5.6-7.7-5.6h-12.3c-2.4,0-5.7,1-7.7,5.8c-0.3,0.8-0.5,1.6-0.8,2.4
			c-3.9,11.6-7.9,23.1-11.8,34.5c-2.1,6-4.1,11.9-6.2,17.9c-3.5,10.2-7,20.4-10.6,30.7c-2.7,8-5.5,16-8.2,24
			c-0.8,2.6-0.9,8.1,5.1,10.5c0.7,0.3,1.7,0.5,2.8,0.5c2.7,0,6-1.3,7.9-5.8c2-5.8,3.9-11.5,5.8-17c1.8-4.9,3.4-9.7,5.1-14.8l0.4-1.1
			l5.6-16.6c3.2-9.2,6.3-18.1,9.3-26.7c3.2-9,6.4-18.2,9.6-27.6c3.2,9.4,6.4,18.6,9.5,27.6c3.1,8.6,6.2,17.5,9.4,26.7h-33.6
			l10.6,16.6h28.6c1.8,5.4,3.6,10.7,5.4,15.9c1.9,5.5,3.9,11.2,5.9,17.1C683.5,748,689,747.8,691.5,746.9"/>
		<path id="path40756" inkscape:connector-curvature="0" class="st0" d="M706.8,739.2c0,2.5,0.8,4.5,2.5,6c3.2,2.9,8.5,2.9,11.7,0
			c1.6-1.5,2.4-3.5,2.4-6V683v-37.8l27.1,53.4L773,743c0.8,1.3,1.7,2.3,2.8,3.1c1.2,0.8,2.7,1.2,4.6,1.2h9.7c2.3,0,4.3-0.7,5.9-2.2
			c1.6-1.5,2.5-3.5,2.5-6v-12.9l0-96.7c0-2.3-0.8-4.3-2.4-6c-3.2-3.3-8.7-3.3-11.9,0c-1.6,1.6-2.4,3.7-2.4,6l0,87.1v7
			c-1.7-3.3-3.4-6.6-5.1-10c-6-11.9-12.1-23.8-18.1-35.6c-8.9-17.3-17.8-35-26.5-52.5c-0.1-0.2-2.3-4.6-7.3-4.6h-9.7
			c-2.4,0-4.3,0.8-5.9,2.5c-1.6,1.6-2.4,3.7-2.4,6v43.8L706.8,739.2z"/>
		<path id="path40760" inkscape:connector-curvature="0" class="st0" d="M577.1,730.7h-57.4l0-64.5v-28.5H577c2.3,0,4.3-0.7,5.9-2.2
			c1.6-1.5,2.5-3.5,2.5-6c0-2.3-0.8-4.3-2.4-5.9c-1.6-1.7-3.6-2.5-5.9-2.5h-65.8c-2.4,0-4.3,0.8-5.9,2.5c-1.5,1.6-2.3,3.6-2.3,5.9
			v46.2l0,63.4c0,2.5,0.8,4.5,2.3,5.9c1.6,1.5,3.5,2.2,5.8,2.2h65.7c2.3,0,4.3-0.7,5.9-2.2c1.6-1.5,2.5-3.5,2.5-6
			c0-2.3-0.8-4.3-2.4-6C581.4,731.5,579.4,730.7,577.1,730.7"/>
		<path id="path40764" inkscape:connector-curvature="0" class="st0" d="M562.8,672.6h-39.2l10.6,16.6h28.6c2.3,0,4.3-0.8,5.9-2.4
			c1.6-1.6,2.4-3.6,2.4-5.9s-0.8-4.3-2.4-5.9c-1.2-1.2-2.8-2-4.4-2.3C563.8,672.6,563.3,672.6,562.8,672.6"/>
		<path id="path40768" inkscape:connector-curvature="0" class="st0" d="M195.3,842.4c-3-8.7-5.9-17.3-8.9-25.9
			c-0.7-2.2-1.5-4.4-2.2-6.5c-4.2-12.1-8.4-24.3-12.7-36.8c-1.4-3.4-3.9-4.1-5.7-4.1h-8.3c-1.8,0-4.2,0.7-5.7,4.2
			c-2.5,7.4-5,14.8-7.5,22c-1.7,4.9-3.4,9.8-5.1,14.7c-2.2,6.2-4.3,12.5-6.5,18.8c-1.4,4-2.8,8.1-4.2,12.2c-0.6,1.9-1.3,3.8-1.9,5.7
			c-0.6,1.9-0.6,6,3.8,7.8c0.6,0.2,1.3,0.3,2,0.3c2.1,0,4.6-1.1,5.9-4.3c1.1-3.3,2.2-6.6,3.3-9.7l0.6-1.7l1.4-4l6.3-18.5
			c2-5.9,4-11.6,6-17.1c1.9-5.5,3.9-11.1,5.8-16.8c2,5.8,3.9,11.3,5.9,16.8c2,5.5,3.9,11.2,6,17.1h-20.1l7.8,12.3h16.4
			c1.2,3.5,2.3,6.9,3.5,10.2c1.3,3.7,2.6,7.5,3.9,11.5c0.8,2,2.1,3.2,3.5,3.7c1.6,0.6,3.2,0.5,4.4,0.1c2.9-1.2,3.9-3.5,4-5.4
			c0.1-0.9,0-1.8-0.3-2.4C196.3,845.1,195.8,843.8,195.3,842.4"/>
		<path id="path40772" inkscape:connector-curvature="0" class="st0" d="M503.9,770.8c-1.2,1.2-1.7,2.7-1.7,4.4v25.1v35.4
			c-4.8-9.5-9.6-18.9-14.4-28.3c-3.7-7.3-7.4-14.5-11.1-21.9c-2.2-4.4-4.4-8.8-6.6-13.2c-0.6-1.3-2.5-3.4-5.4-3.4h-6.5
			c-1.7,0-3.2,0.6-4.4,1.9c-0.3,0.3-0.6,0.7-0.8,1.1c-0.6,1-0.9,2.1-0.9,3.4v73.3c0,1.8,0.6,3.3,1.8,4.4c2.4,2.1,6.3,2.1,8.6,0
			c1.2-1.1,1.8-2.6,1.8-4.4v-60.4l32.1,63.3c0.6,1,1.3,1.7,2,2.2c0.9,0.6,2,0.9,3.4,0.9h6.5c1.7,0,3.1-0.5,4.3-1.6
			c1.2-1.1,1.8-2.6,1.8-4.4v-41.1v-32.2c0-1.7-0.6-3.2-1.8-4.4C510.4,768.4,506.2,768.4,503.9,770.8"/>
		<path id="path40776" inkscape:connector-curvature="0" class="st0" d="M13.9,793c1-2.3,2.4-4.4,4.1-6.1c1.7-1.7,3.8-3.1,6.1-4.1
			c2.3-1,4.9-1.5,7.5-1.5h14.1c1.2,0,2.3-0.3,3.3-0.9c0.4-0.2,0.7-0.5,1-0.8c1.2-1.1,1.8-2.6,1.8-4.4c0-1.7-0.6-3.2-1.7-4.4
			c-1.2-1.2-2.7-1.9-4.4-1.9H31.6c-0.8,0-1.5,0-2.2,0.1c-3.5,0.2-6.9,1-10.1,2.4c-3.8,1.6-7.2,3.9-10,6.8c-2.8,2.8-5.1,6.2-6.7,10
			C0.8,792,0,796.2,0,800.5v22.6c0,4.1,0.8,8.2,2.4,12c1.6,3.8,3.9,7.3,6.9,10.4c2.9,2.9,6.3,5.2,10.2,6.8c3.8,1.6,7.9,2.4,12.1,2.4
			h14.3c1.8,0,3.3-0.6,4.4-1.7c1.1-1.1,1.7-2.6,1.7-4.4c0-1.7-0.5-3.1-1.6-4.3c-1.1-1.3-2.6-1.9-4.4-1.9H31.6
			c-2.7,0-5.3-0.5-7.6-1.4c-2.2-0.9-4.3-2.3-6-4.3c-3.8-3.7-5.7-8.1-5.7-13.5v-22.6C12.3,797.9,12.8,795.4,13.9,793"/>
		<path id="path40780" inkscape:connector-curvature="0" class="st0" d="M343.3,776.7c-1.9-1.9-4.2-3.5-6.7-4.8
			c-0.6-0.3-1.1-0.6-1.7-0.8c-3.2-1.4-6.7-2.1-10.2-2.1h-24.6c-1.8,0-3.3,0.6-4.6,1.8c-1.2,1.2-1.8,2.7-1.8,4.4v21.4v51.9
			c0,1.8,0.6,3.3,1.9,4.5c1.2,1.1,2.6,1.6,4.3,1.6c1.8,0,3.3-0.6,4.4-1.7c1.2-1.1,1.8-2.6,1.8-4.4v-59.1v-8.2h14.2h4.3
			c1.9,0,3.7,0.4,5.4,1.1c1.7,0.7,3.2,1.8,4.5,3.1c1.3,1.3,2.3,2.9,3,4.6c0.7,1.7,1.1,3.5,1.1,5.4c0,1.9-0.4,3.7-1.1,5.4
			c-0.7,1.7-1.7,3.2-3,4.5c-1.3,1.3-2.8,2.3-4.5,3c-1.7,0.7-3.5,1.1-5.4,1.1h-14.9l7.9,12.3h7.1c3.5,0,7-0.7,10.2-2.1
			c3.2-1.3,6-3.2,8.4-5.6c0.8-0.8,1.5-1.6,2.2-2.5c1.4-1.8,2.6-3.8,3.5-5.9c1.4-3.2,2.2-6.7,2.2-10.3c0-3.7-0.7-7.1-2.2-10.4
			C347.6,781.9,345.6,779.1,343.3,776.7"/>
		<path id="path40784" inkscape:connector-curvature="0" class="st0" d="M360.3,770.8c-1.2,1.2-1.8,2.7-1.8,4.4v73.4
			c0,1.8,0.6,3.3,1.9,4.4c1.2,1.1,2.6,1.6,4.3,1.6c1.7,0,3.1-0.5,4.3-1.6c1.2-1.1,1.8-2.6,1.8-4.4v-73.4c0-1.7-0.6-3.2-1.8-4.4
			C366.8,768.4,362.7,768.4,360.3,770.8"/>
		<path id="path40788" inkscape:connector-curvature="0" class="st0" d="M430.8,823.1c0,2.6-0.5,5.1-1.5,7.4c-1,2.3-2.4,4.4-4.1,6.2
			c-1.7,1.7-3.8,3.1-6.1,4.1c-4.7,2-10.3,2-14.9,0c-2.3-1-4.4-2.4-6.1-4.1c-1.7-1.7-3.1-3.8-4.1-6.1c-1-2.3-1.5-4.8-1.5-7.4v-22.6
			c0-2.6,0.5-5.1,1.5-7.5s2.4-4.4,4.1-6.1c1.7-1.7,3.8-3.1,6.2-4.1c2.3-1,4.8-1.5,7.4-1.5c2.5,0,4.9,0.5,7.2,1.4
			c2.3,0.9,4.4,2.4,6.3,4.3c1.9,1.9,3.4,3.9,4.3,6.2c0.9,2.3,1.4,4.7,1.4,7.2V823.1z M433.8,778.2c-3.1-3-6.5-5.3-10.3-6.8
			c-7.7-3.2-16.9-3.1-24.4,0.1c-3.8,1.6-7.2,3.9-10,6.8c-2.8,2.9-5.1,6.2-6.7,10c-1.6,3.8-2.5,7.9-2.5,12.3v22.6
			c0,4.3,0.8,8.4,2.5,12.2c1.6,3.8,3.9,7.2,6.8,10c2.8,2.8,6.2,5.1,10,6.8c3.8,1.6,8,2.5,12.3,2.5c4.3,0,8.5-0.8,12.3-2.5
			c3.8-1.6,7.1-3.9,10-6.8c2.8-2.8,5.1-6.2,6.8-10c1.6-3.8,2.5-7.9,2.5-12.2v-22.6c0-4.2-0.8-8.2-2.3-12.1
			C439.1,784.6,436.8,781.2,433.8,778.2"/>
		<path id="path40792" inkscape:connector-curvature="0" class="st0" d="M660.4,770.8c-1.2,1.2-1.8,2.7-1.8,4.4v52.2v21.2
			c0,1.8,0.6,3.3,1.8,4.4c1.2,1.1,2.6,1.6,4.3,1.6c1.7,0,3.1-0.5,4.3-1.6c1.2-1.1,1.8-2.6,1.8-4.4v-28.3v-45.1
			c0-1.7-0.6-3.2-1.8-4.4C666.8,768.4,662.7,768.4,660.4,770.8"/>
		<path id="path40796" inkscape:connector-curvature="0" class="st0" d="M570.7,812.6c-2.2-2.1-4.7-3.8-7.7-5.1
			c-2.9-1.2-6-1.9-9.3-1.9h-5.3c-1.5-0.1-3-0.4-4.2-0.9c-2.6-1.1-4.8-3.2-6.2-5.7c-0.6-1.2-1-2.5-1.2-4.1c-0.3-2.3,0-4.4,0.8-6.3
			c0.6-1.5,1.6-2.8,2.7-4c1.1-1.2,2.4-2.1,3.9-2.7c1.5-0.6,3.1-0.9,4.8-0.9h21.7c3.2-0.1,5.8-2.7,5.8-5.8c0-3.2-2.6-5.8-5.7-5.8
			c-0.1,0-0.2,0-0.3,0H549c-3.3,0-6.4,0.7-9.3,1.9c-5.8,2.5-10.3,7-12.8,12.7c-1.3,2.9-1.9,6-1.9,9.4c0,2.2,0.3,4.5,1,6.6
			c0.3,1.1,0.6,2,1,2.7c1.3,3,3,5.5,5.2,7.6c2.2,2.2,4.8,3.9,7.7,5.1c2.9,1.2,6.1,1.8,9.3,1.8h0.6c4.6,0,8.9-0.1,12.4,3.2
			c2.5,2.3,4,5.7,4,9c0,2.3-0.7,4.6-1.9,6.5c-0.4,0.7-0.9,1.3-1.4,1.9c-2.3,2.5-5.6,4-9,4h-23.5c-3.2,0.1-5.8,2.7-5.8,5.9
			c0,3.2,2.6,5.8,5.8,5.8h23.5c3.3,0,6.4-0.6,9.3-1.9c2.9-1.2,5.4-3,7.6-5.1c1.4-1.4,2.6-2.9,3.7-4.6c0.6-1,1.1-2,1.6-3
			c1.3-3,1.9-6.2,1.9-9.4c0-3.3-0.7-6.5-1.9-9.4C574.6,817.3,572.9,814.7,570.7,812.6"/>
		<path id="path40800" inkscape:connector-curvature="0" class="st0" d="M790.6,812.6c-2.2-2.1-4.7-3.8-7.7-5.1
			c-2.9-1.2-6-1.9-9.3-1.9h-5.4c-1.5-0.1-2.9-0.4-4.1-0.9c-2.7-1.1-4.9-3.2-6.2-5.7c-1.7-3.3-1.8-7.2-0.4-10.4
			c0.6-1.5,1.5-2.8,2.7-4c1.1-1.1,2.4-2.1,4-2.7c1.5-0.6,3-0.9,4.7-0.9h21.8c3.2-0.1,5.7-2.7,5.7-5.8c0-3.2-2.6-5.8-5.7-5.8
			c-0.1,0-0.2,0-0.3,0h-21.5c-3.3,0-6.4,0.7-9.3,1.9c-5.8,2.5-10.4,7-12.9,12.7c-1.3,3-1.9,6.1-1.9,9.4c0,3.2,0.6,6.4,1.9,9.4
			c1.3,3,3.1,5.5,5.2,7.6c2.1,2.1,4.7,3.8,7.7,5.1c2.9,1.2,6,1.8,9.3,1.8h0.7c4.6,0,8.9-0.1,12.4,3.2c2.5,2.3,4,5.7,4,9
			c0,1.1-0.2,2.4-0.7,3.8c-0.6,1.8-1.5,3.3-2.7,4.6c-2.4,2.5-5.6,4-9,4h-23.6c-3.2,0.1-5.7,2.7-5.7,5.9c0,3.2,2.6,5.8,5.8,5.8h23.5
			c3.3,0,6.4-0.6,9.3-1.9c2.9-1.2,5.5-3,7.7-5.1c2-2,3.7-4.4,5-7.3c0,0,0.1-0.2,0.2-0.3c1.3-3,1.9-6.2,1.9-9.4
			c0-3.3-0.7-6.4-1.9-9.4C794.5,817.2,792.8,814.7,790.6,812.6"/>
		<path id="path40804" inkscape:connector-curvature="0" class="st0" d="M736.1,782.6c-1.2-2.2-2.7-4.2-4.5-6
			c-2.4-2.4-5.3-4.2-8.4-5.6c-3.2-1.4-6.7-2.1-10.2-2.1h-24.6c-1.8,0-3.3,0.6-4.6,1.8c-1.2,1.2-1.8,2.7-1.8,4.5v38.6v34.7
			c0,1.8,0.7,3.3,1.9,4.5c1.2,1.1,2.7,1.6,4.4,1.6c1.8,0,3.2-0.6,4.4-1.7c1.2-1.1,1.8-2.6,1.8-4.4v-41.9v-25.4H713
			c1.9,0,3.7,0.4,5.4,1.1c1.7,0.7,3.2,1.8,4.5,3.1c0.9,1,1.8,2.1,2.4,3.3c0.2,0.4,0.4,0.8,0.6,1.3c0.7,1.7,1.1,3.5,1.1,5.4
			c0,1.9-0.4,3.7-1.1,5.4c-0.7,1.7-1.7,3.2-3,4.5c-1.3,1.3-2.8,2.3-4.5,3c-1.7,0.7-3.5,1.1-5.4,1.1H698l7.8,12.3h7.1
			c3.5,0,7-0.7,10.2-2.1c3.2-1.4,6-3.2,8.4-5.6c0.8-0.8,1.5-1.6,2.2-2.5c1.4-1.8,2.6-3.8,3.5-5.9c1.4-3.2,2.1-6.7,2.1-10.3
			c0-3.7-0.7-7.1-2.1-10.4C737,784.2,736.6,783.4,736.1,782.6"/>
		<path id="path40808" inkscape:connector-curvature="0" class="st0" d="M275.7,769h-6.3c-1.1,0-2.1,0.3-3,0.8
			c-0.8,0.5-1.5,1.2-1.9,1.9c0,0-18.1,28.9-21.6,33.6c-3.5-4.8-21.5-33.5-21.5-33.5c-0.5-0.8-1.2-1.5-2-2c-0.9-0.5-1.9-0.8-3-0.8
			h-6.3c-1.8,0-3.4,0.7-4.5,1.9c-1.1,1.2-1.6,2.7-1.6,4.3v73.2v0.2c0,1.8,0.6,3.3,1.7,4.4c2.1,2.2,6.2,2.3,8.7,0.1
			c1.3-1.1,1.9-2.6,1.9-4.5v-7.3v-55.5c3,4.2,17.4,27.9,21.5,33.6c2.4,3.2,7.6,3.2,10.1,0c4.1-5.7,18.5-29.4,21.5-33.6v24.8v38
			c0,1.8,0.7,3.4,1.9,4.5c1.2,1.1,2.7,1.6,4.3,1.6c1.8,0,3.3-0.6,4.4-1.7c1.1-1.1,1.7-2.6,1.7-4.4v-45.1v-28.3
			c0-1.7-0.5-3.1-1.6-4.3C279.1,769.6,277.6,769,275.7,769"/>
		<path id="path40812" inkscape:connector-curvature="0" class="st0" d="M60,770.8c-1.2,1.2-1.7,2.7-1.7,4.4v10.5v62.8
			c0,1.8,0.6,3.3,1.9,4.4c2.3,2.1,6.3,2.1,8.6,0c1.2-1.1,1.9-2.7,1.9-4.4v-47v-8.7v-17.6c0-1.7-0.6-3.2-1.8-4.4
			C66.4,768.3,62.4,768.3,60,770.8"/>
		<path id="path40816" inkscape:connector-curvature="0" class="st0" d="M108.4,770.8c-1.1,1.2-1.7,2.7-1.7,4.4v26.3H85.7H74.1
			l7.8,12.3h24.8v34.7c0,1.8,0.6,3.2,1.7,4.4c1.2,1.1,2.6,1.7,4.4,1.7c1.8,0,3.3-0.6,4.4-1.7c1.1-1.1,1.7-2.6,1.7-4.3v-27.8v-45.6
			c0-1.7-0.5-3.2-1.6-4.3C115.2,768.4,110.7,768.3,108.4,770.8"/>
		<path id="path40820" inkscape:connector-curvature="0" class="st0" d="M588.5,770.8c-1.2,1.2-1.7,2.7-1.7,4.4v73.3
			c0,1.8,0.6,3.3,1.9,4.4c2.3,2.1,6.3,2.1,8.6,0c1.2-1.1,1.9-2.7,1.9-4.4v-47v-26.3c0-1.7-0.6-3.2-1.8-4.4
			C594.9,768.3,590.8,768.3,588.5,770.8"/>
		<path id="path40824" inkscape:connector-curvature="0" class="st0" d="M636.9,770.8c-1.1,1.2-1.7,2.7-1.7,4.4v26.3h-32.6l7.8,12.3
			h24.8v27v7.7c0,1.8,0.6,3.2,1.7,4.4c1.1,1.1,2.6,1.7,4.4,1.7c1.8,0,3.3-0.6,4.4-1.7c1.1-1.1,1.7-2.6,1.7-4.3v-14.7v-58.6
			c0-1.7-0.5-3.2-1.6-4.3C643.7,768.4,639.2,768.3,636.9,770.8"/>
		<path id="path40828" inkscape:connector-curvature="0" class="st0" d="M0.1,740.1c0.2,2,1,3.7,2.3,5c1.5,1.5,3.5,2.2,5.8,2.2h68.9
			c2.3,0,4.3-0.7,5.8-2.2c1.6-1.5,2.5-3.5,2.5-6c0-2.3-0.8-4.3-2.4-6c-1.6-1.7-3.6-2.5-5.9-2.5H16.5l0-92.9H77
			c2.3,0,4.3-0.7,5.9-2.2c1.6-1.5,2.4-3.5,2.4-6c0-2.3-0.8-4.3-2.4-6c-1.6-1.7-3.6-2.5-5.9-2.5H8.2c-2.4,0-4.4,0.8-5.9,2.5
			c-1.5,1.6-2.3,3.6-2.3,5.9l0,109.6C0,739.5,0,739.8,0.1,740.1"/>
		<path id="path40832" inkscape:connector-curvature="0" class="st0" d="M59.6,672.6H20.4L31,689.2h28.6c2.3,0,4.3-0.8,5.9-2.4
			c1.6-1.6,2.4-3.6,2.4-5.9c0-2.3-0.8-4.3-2.4-5.9c-1.2-1.2-2.8-2-4.4-2.3C60.6,672.6,60.2,672.6,59.6,672.6"/>
		<path id="path40836" inkscape:connector-curvature="0" class="st1" d="M176.3,623.6c-1.6,1.6-2.4,3.7-2.4,6v10.2l16.6-9.6v0v-0.6
			c0-2.3-0.8-4.3-2.3-6C185,620.3,179.5,620.3,176.3,623.6"/>
		<path id="path40840" inkscape:connector-curvature="0" class="st1" d="M114.1,629.6c0-2.3-0.8-4.3-2.4-6c-3.2-3.3-8.7-3.3-11.9,0
			c-1.6,1.6-2.4,3.7-2.4,6v54.3l16.6-9.6V629.6z"/>
		<path id="path40844" inkscape:connector-curvature="0" class="st1" d="M279.8,632.4c-3.4-3.4-7.6-6.2-12.3-8.2
			c-4.7-2.1-9.8-3.1-15.1-3.1h-39.9c-2.6,0-4.7,0.8-6.2,2.5c-1.2,1.3-2,2.9-2.2,4.7l16.4,9.4h31.9c3,0,5.8,0.6,8.5,1.7
			c2.7,1.1,5,2.7,7,4.8c2,2,3.6,4.4,4.7,7.1c1.1,2.6,1.7,5.5,1.7,8.5c0,2.9-0.5,5.7-1.6,8.2l14.5,8.4c0.6-1.4,1.2-2.7,1.7-4.2
			c1.4-3.9,2-8.1,2-12.4c0-5.3-1.1-10.4-3.1-15.1C286,640,283.3,635.9,279.8,632.4"/>
		<path id="path40848" inkscape:connector-curvature="0" class="st1" d="M374.8,656.2c1.5,3.5,2.2,7.3,2.2,11.1v33.8
			c0,4.1-0.8,7.9-2.3,11.4c-1.6,3.6-3.7,6.8-6.4,9.5c-0.2,0.2-0.4,0.4-0.6,0.6l14.7,8.5c3-3.6,5.5-7.6,7.5-12.1
			c2.4-5.6,3.6-11.6,3.6-17.9l0-33.8c0-6.1-1.1-12.1-3.4-17.7c-2.2-5.6-5.6-10.7-10-15.1c-4.5-4.4-9.6-7.7-15.1-10
			c-11.3-4.7-24.7-4.6-35.8,0.2c-5.6,2.4-10.5,5.8-14.7,10c-4.1,4.2-7.5,9.1-9.9,14.7c-2.4,5.6-3.6,11.6-3.6,18v16.8l16.8,9.7v-26.5
			c0-4.1,0.8-7.9,2.3-11.5c1.5-3.6,3.7-6.8,6.3-9.4c2.7-2.7,5.9-4.8,9.4-6.4c3.5-1.6,7.4-2.4,11.4-2.4c3.8,0,7.6,0.8,11.1,2.2
			c3.5,1.5,6.8,3.7,9.7,6.7C371.1,649.5,373.3,652.7,374.8,656.2"/>
		<path id="path40852" inkscape:connector-curvature="0" class="st1" d="M423.6,721.6l0-83.9h31.5c0.7,0,1.4,0,2.1,0.1
			c0.1,0,0.2,0,0.3,0c2.1,0.2,4.2,0.8,6.1,1.6c2.7,1.1,5,2.7,7,4.8c2,2,3.6,4.4,4.7,7.1c1.1,2.6,1.7,5.5,1.7,8.5c0,0.7,0,1.4-0.1,2
			c-0.2,2.2-0.7,4.4-1.6,6.4c-1.2,2.7-2.8,5-4.8,7c-2,2-4.3,3.5-6.9,4.7c0,0,0,0-0.1,0c-2.6,1.1-5.4,1.7-8.4,1.7h-28.3l10.6,16.6
			h17.7c1.2,0,2.4-0.1,3.5-0.2c0.7-0.1,1.3-0.2,1.9-0.3c0.4-0.1,0.9-0.1,1.3-0.2c0.9-0.2,1.7-0.4,2.6-0.6c0.2,0,0.3-0.1,0.5-0.1
			c1-0.3,1.9-0.6,2.9-0.9h0h0c0.7-0.3,1.4-0.5,2.2-0.8c3.9-1.6,7.4-3.8,10.5-6.5v0c0.6-0.5,1.3-1.1,1.9-1.7c0.5-0.5,1-1,1.4-1.6
			c2.9-3.1,5.2-6.7,6.9-10.7c1-2.4,1.8-4.8,2.3-7.3c0.5-2.5,0.8-5.1,0.8-7.8c0-1.9-0.2-3.8-0.4-5.6c-0.1-0.7-0.2-1.5-0.3-2.2
			c0-0.1-0.1-0.3-0.1-0.4c-0.2-1.1-0.5-2.2-0.8-3.3c-0.4-1.2-0.8-2.4-1.4-3.6c-2-4.7-4.9-8.8-8.4-12.2c-3.5-3.4-7.7-6.2-12.3-8.3
			c-4.7-2-9.7-3.1-14.9-3.1h-39.6c-2.5,0-4.5,0.8-6.2,2.5c-1.6,1.6-2.5,3.6-2.5,6l0,101.8L423.6,721.6z"/>
		<path id="path40856" inkscape:connector-curvature="0" class="st1" d="M658.9,626.7c-2-4.6-5.3-5.6-7.7-5.6h-12.3
			c-2.4,0-5.7,1-7.7,5.8c-0.3,0.8-0.5,1.6-0.8,2.4l36.7,21.2C664.3,642.6,661.6,634.7,658.9,626.7"/>
		<path id="path40860" inkscape:connector-curvature="0" class="st1" d="M706.8,673.4l16.6,9.6v-37.8l27.1,53.4l26.3,15.2
			c-6.1-11.9-12.1-23.8-18.1-35.6c-8.8-17.3-17.8-35-26.5-52.5c-0.1-0.2-2.3-4.6-7.3-4.6h-9.7c-2.3,0-4.3,0.8-5.9,2.5
			c-1.6,1.6-2.4,3.6-2.4,5.9L706.8,673.4z"/>
		<path id="path40864" inkscape:connector-curvature="0" class="st1" d="M781.8,716.7l16.6,9.6l0-96.7c0-2.3-0.8-4.3-2.4-6
			c-3.2-3.3-8.7-3.3-11.9,0c-1.6,1.6-2.4,3.6-2.4,6L781.8,716.7z"/>
		<path id="path40868" inkscape:connector-curvature="0" class="st1" d="M577,621.1h-65.8c-2.4,0-4.3,0.8-5.9,2.5
			c-1.5,1.6-2.3,3.6-2.3,5.9v46.1l16.5-9.5v-28.5H577c2.3,0,4.3-0.7,5.9-2.2c1.6-1.5,2.5-3.5,2.5-6c0-2.3-0.8-4.3-2.4-6
			C581.4,621.9,579.4,621.1,577,621.1"/>
		<path id="path40872" inkscape:connector-curvature="0" class="st1" d="M128.5,840.9c-0.7,1.9-1.3,3.8-1.9,5.7
			c-0.6,1.9-0.6,6,3.8,7.8c0.6,0.2,1.3,0.3,2,0.3c2.1,0,4.6-1.1,5.9-4.3c1.1-3.3,2.2-6.6,3.3-9.7l0.6-1.7l1.4-4l-10.8-6.2
			C131.3,832.7,129.9,836.8,128.5,840.9"/>
		<path id="path40876" inkscape:connector-curvature="0" class="st1" d="M502.2,800.3v35.4c-4.8-9.5-9.6-18.9-14.4-28.3
			c-3.7-7.3-7.4-14.5-11.1-21.9l-23.8-13.7c-0.6,1-0.9,2.1-0.9,3.4v73.3c0,1.8,0.6,3.3,1.8,4.4c2.3,2.1,6.3,2.1,8.6,0
			c1.2-1.1,1.8-2.7,1.8-4.4v-60.4l32.1,63.3c0.6,1,1.3,1.7,2,2.2c0.9,0.6,2,0.9,3.4,0.9h6.5c1.7,0,3.1-0.5,4.3-1.6
			c1.2-1.1,1.8-2.7,1.8-4.4v-41.1L502.2,800.3z"/>
		<path id="path40880" inkscape:connector-curvature="0" class="st1" d="M45.8,842.3H31.6c-2.7,0-5.3-0.5-7.6-1.4
			c-2.3-0.9-4.3-2.3-6-4.3c-3.8-3.7-5.6-8.1-5.6-13.5v-22.6c0-2.6,0.5-5.2,1.5-7.5c1-2.4,2.4-4.4,4.1-6.1c1.7-1.7,3.8-3.1,6.1-4.1
			c2.3-1,4.9-1.5,7.5-1.5h14.1c1.2,0,2.4-0.3,3.3-0.9L29.3,769c-3.5,0.3-6.9,1.1-10.1,2.4c-3.8,1.6-7.2,3.9-10,6.8
			c-2.8,2.9-5.1,6.2-6.7,10C0.8,792,0,796.2,0,800.5v22.6c0,4.1,0.8,8.2,2.4,12c1.6,3.8,3.9,7.3,6.9,10.4c2.9,2.9,6.3,5.2,10.2,6.8
			s7.9,2.4,12.1,2.4h14.2c1.8,0,3.3-0.6,4.4-1.7c1.1-1.1,1.7-2.6,1.7-4.4c0-1.7-0.5-3.1-1.6-4.3C49.2,842.9,47.6,842.3,45.8,842.3"
			/>
		<path id="path40884" inkscape:connector-curvature="0" class="st1" d="M293.7,848.6c0,1.8,0.7,3.3,1.9,4.5
			c1.2,1.1,2.7,1.6,4.3,1.6c1.8,0,3.3-0.6,4.4-1.7c1.2-1.1,1.8-2.6,1.8-4.4v-59.1l-12.4,7.2V848.6z"/>
		<path id="path40888" inkscape:connector-curvature="0" class="st1" d="M343.3,776.7c-1.9-1.9-4.2-3.5-6.7-4.8l-16.3,9.4h4.3
			c1.9,0,3.7,0.3,5.4,1.1c1.7,0.7,3.2,1.8,4.5,3.1c1.3,1.3,2.3,2.9,3.1,4.6c0.7,1.7,1.1,3.5,1.1,5.4s-0.4,3.8-1.1,5.4
			c-0.7,1.7-1.7,3.2-3.1,4.5c-1.3,1.3-2.8,2.3-4.5,3c-1.7,0.7-3.5,1.1-5.4,1.1h-14.9l7.9,12.3h7.1c3.5,0,7-0.7,10.2-2.1
			c3.2-1.3,6-3.2,8.4-5.6c0.8-0.8,1.5-1.6,2.2-2.5c1.4-1.8,2.6-3.8,3.5-5.9c1.4-3.2,2.2-6.7,2.2-10.3s-0.7-7.1-2.2-10.3
			C347.6,781.9,345.7,779.1,343.3,776.7"/>
		<path id="path40892" inkscape:connector-curvature="0" class="st1" d="M360.3,770.8c-1.2,1.2-1.8,2.7-1.8,4.4v73.3
			c0,1.8,0.6,3.3,1.9,4.4c1.2,1.1,2.6,1.6,4.3,1.6c1.7,0,3.1-0.5,4.3-1.6c1.2-1.1,1.8-2.6,1.8-4.4v-73.3c0-1.7-0.6-3.2-1.8-4.4
			C366.8,768.4,362.7,768.4,360.3,770.8"/>
		<path id="path40896" inkscape:connector-curvature="0" class="st1" d="M430.8,823.1c0,2.6-0.5,5.1-1.5,7.4c-1,2.3-2.4,4.4-4.1,6.2
			c-1.7,1.7-3.8,3.1-6.1,4.1c-4.7,2-10.3,2-14.9,0c-2.3-1-4.4-2.4-6.1-4.1c-1.7-1.7-3.1-3.8-4.1-6.1c-1-2.3-1.5-4.8-1.5-7.4v-22.6
			c0-2.6,0.5-5.2,1.5-7.5c1-2.3,2.4-4.4,4.1-6.1c1.7-1.7,3.8-3.1,6.2-4.1c2.3-1,4.8-1.5,7.4-1.5c2.5,0,4.9,0.5,7.2,1.4
			c2.3,1,4.4,2.4,6.3,4.4c1.9,1.9,3.4,3.9,4.3,6.2c0.9,2.3,1.4,4.7,1.4,7.2V823.1z M433.8,778.2c-3.1-3-6.5-5.3-10.3-6.8
			c-7.7-3.2-16.9-3.1-24.4,0.1c-3.8,1.6-7.2,3.9-10,6.8c-2.8,2.9-5.1,6.2-6.7,10c-1.6,3.8-2.5,7.9-2.5,12.3v22.6
			c0,4.3,0.8,8.4,2.5,12.2c1.6,3.8,3.9,7.2,6.8,10c2.8,2.8,6.2,5.1,10,6.8c3.8,1.6,8,2.5,12.3,2.5c4.3,0,8.5-0.8,12.3-2.5
			c3.8-1.6,7.1-3.9,10-6.8c2.8-2.8,5.1-6.2,6.8-10c1.6-3.8,2.5-7.9,2.5-12.2v-22.6c0-4.2-0.8-8.2-2.3-12.1
			C439.1,784.6,436.8,781.2,433.8,778.2"/>
		<path id="path40900" inkscape:connector-curvature="0" class="st1" d="M658.6,827.4v21.1c0,1.8,0.6,3.3,1.8,4.4
			c1.2,1.1,2.6,1.6,4.3,1.6c1.7,0,3.1-0.5,4.3-1.6c1.2-1.1,1.8-2.6,1.8-4.4v-28.3L658.6,827.4z"/>
		<path id="path40904" inkscape:connector-curvature="0" class="st1" d="M562.7,838c-2.3,2.5-5.6,4-9,4h-23.6
			c-3.2,0.1-5.8,2.7-5.8,5.9s2.6,5.8,5.8,5.8h23.5c3.3,0,6.4-0.6,9.3-1.9c2.9-1.2,5.4-3,7.6-5.1c1.4-1.4,2.6-2.9,3.7-4.6l-10.2-5.9
			C563.8,836.8,563.3,837.4,562.7,838"/>
		<path id="path40908" inkscape:connector-curvature="0" class="st1" d="M790.6,812.6c-2.2-2.1-4.7-3.8-7.7-5.1
			c-2.9-1.2-6-1.9-9.3-1.9h-5.4c-1.5-0.1-2.9-0.4-4.1-0.9c-2.7-1.1-4.9-3.2-6.2-5.7c-1.7-3.3-1.8-7.2-0.4-10.4
			c0.6-1.5,1.5-2.8,2.7-4c1.1-1.1,2.4-2.1,4-2.7c1.5-0.6,3-0.9,4.7-0.9h21.8c3.2-0.1,5.7-2.7,5.7-5.8c0-3.2-2.6-5.8-5.7-5.8
			c-0.1,0-0.2,0-0.3,0h-21.5c-3.3,0-6.4,0.7-9.3,1.9c-5.8,2.5-10.4,7-12.9,12.7c-1.3,3-1.9,6.1-1.9,9.4c0,3.2,0.6,6.4,1.9,9.4
			c1.3,3,3.1,5.5,5.2,7.6c2.1,2.1,4.7,3.8,7.7,5.1c2.9,1.2,6,1.8,9.3,1.8h0.7c4.6,0,8.9-0.1,12.4,3.2c2.5,2.3,4,5.7,4,9
			c0,1.1-0.2,2.4-0.7,3.8c-0.6,1.8-1.5,3.3-2.7,4.6c-2.4,2.5-5.6,4-9,4h-23.6c-3.2,0.1-5.7,2.7-5.7,5.8c0,3.2,2.6,5.8,5.8,5.8h23.5
			c3.3,0,6.4-0.6,9.3-1.9c2.9-1.2,5.5-3,7.7-5.1c2-2,3.7-4.4,5-7.3c0,0,0.1-0.2,0.2-0.3c1.3-3,1.9-6.2,1.9-9.4s-0.7-6.4-1.9-9.4
			C794.5,817.2,792.8,814.7,790.6,812.6"/>
		<path id="path40912" inkscape:connector-curvature="0" class="st1" d="M682.1,813.9v34.7c0,1.8,0.7,3.3,1.9,4.5
			c1.2,1.1,2.7,1.6,4.3,1.6c1.8,0,3.3-0.6,4.4-1.7c1.2-1.1,1.8-2.6,1.8-4.4v-41.9L682.1,813.9z"/>
		<path id="path40916" inkscape:connector-curvature="0" class="st1" d="M736.1,782.7l-10.8,6.2c0.2,0.4,0.4,0.8,0.5,1.1
			c0.7,1.7,1.1,3.5,1.1,5.4c0,1.9-0.4,3.7-1.1,5.4c-0.7,1.7-1.7,3.2-3,4.5c-1.3,1.3-2.8,2.3-4.5,3.1c-1.7,0.7-3.5,1.1-5.4,1.1H698
			l7.8,12.3h7.1c3.5,0,7-0.7,10.2-2.1c3.2-1.4,6-3.2,8.4-5.6c0.8-0.8,1.5-1.6,2.2-2.5c1.4-1.8,2.6-3.8,3.5-5.9
			c1.4-3.2,2.1-6.7,2.1-10.3c0-3.7-0.7-7.1-2.1-10.4C737,784.3,736.6,783.4,736.1,782.7"/>
		<path id="path40920" inkscape:connector-curvature="0" class="st1" d="M204.1,848.4v0.2c0,1.8,0.6,3.3,1.7,4.4
			c2.1,2.1,6.2,2.3,8.7,0.1c1.3-1.1,1.9-2.6,1.9-4.5v-7.3L204.1,848.4z"/>
		<path id="path40924" inkscape:connector-curvature="0" class="st1" d="M269.5,848.6c0,1.8,0.7,3.4,1.9,4.5
			c1.2,1.1,2.7,1.6,4.3,1.6c1.8,0,3.3-0.6,4.4-1.7c1.1-1.1,1.7-2.6,1.7-4.4v-45.1v0l-12.3,7.1V848.6z"/>
		<path id="path40928" inkscape:connector-curvature="0" class="st1" d="M58.3,848.6c0,1.8,0.6,3.3,1.8,4.4c2.3,2.1,6.3,2.1,8.6,0
			c1.2-1.1,1.8-2.6,1.8-4.4v-47v-8.7l-12.3-7.1V848.6z"/>
		<path id="path40932" inkscape:connector-curvature="0" class="st1" d="M74.1,801.6l7.9,12.3h24.8v34.7c0,1.8,0.6,3.3,1.7,4.4
			c1.2,1.1,2.6,1.7,4.4,1.7c1.8,0,3.3-0.6,4.4-1.7c1.1-1.1,1.7-2.6,1.7-4.4v-27.8l-33.3-19.2H74.1z"/>
		<path id="path40936" inkscape:connector-curvature="0" class="st1" d="M635.3,848.6c0,1.8,0.6,3.3,1.7,4.4
			c1.2,1.1,2.6,1.7,4.4,1.7c1.8,0,3.3-0.6,4.4-1.7c1.1-1.1,1.7-2.6,1.7-4.3v-14.7l-12.2,7V848.6z"/>
		<path id="path40940" inkscape:connector-curvature="0" class="st1" d="M0.1,740.1L0.1,740.1l16.4-9.5l0-92.9H77
			c2.3,0,4.3-0.7,5.9-2.2c1.6-1.5,2.4-3.5,2.4-6c0-2.3-0.8-4.3-2.4-6c-1.6-1.7-3.6-2.5-5.9-2.5H8.2c-2.4,0-4.3,0.8-5.9,2.5
			c-1.5,1.6-2.3,3.6-2.3,5.9l0,109.6C0,739.5,0,739.8,0.1,740.1"/>
		<path id="path40944" inkscape:connector-curvature="0" class="st1" d="M59.6,672.6H20.4L31,689.2h28.6c2.3,0,4.3-0.8,5.9-2.4
			c1.6-1.6,2.4-3.6,2.4-5.9s-0.8-4.3-2.4-5.9c-1.2-1.2-2.8-2-4.4-2.3C60.6,672.6,60.2,672.6,59.6,672.6"/>
	</g>
	<g>
		<polygon class="st2" points="608.9,0 458.1,86.9 533.5,130.5 		"/>
		<polygon class="st3" points="1000,177.2 718.5,177.2 793.9,220.7 		"/>
		<polygon class="st4" points="176.6,240.4 382.7,283.9 458.1,240.4 		"/>
		<polygon class="st5" points="533.5,284 533.5,130.4 458.1,86.9 458.1,240.4 		"/>
		<polygon class="st6" points="674.3,365.2 674.3,365.2 598.9,408.7 723.1,480.4 798.4,436.9 		"/>
		<polygon class="st7" points="281.5,592 206,548.4 0,592 		"/>
		<polygon class="st8" points="798.4,599.4 798.4,436.9 723.1,480.4 		"/>
		<polygon class="st9" points="718.5,177.2 608.9,240.4 608.9,327.5 793.9,220.7 		"/>
		<polygon class="st10" points="793.9,220.7 608.9,327.5 674.3,365.2 1000,177.2 		"/>
		<polygon class="st11" points="608.9,327.5 608.8,0 533.5,130.5 533.5,284 		"/>
		<polygon class="st12" points="674.3,365.2 533.5,371 458.1,240.4 		"/>
		<polygon class="st13" points="798.4,599.4 723.1,480.4 598.9,408.7 533.5,446.5 533.5,446.5 533.5,446.5 		"/>
		<polygon class="st14" points="674.3,365.2 458.1,490 533.5,371 		"/>
		<polygon class="st15" points="458.1,402.9 206,548.4 281.5,592 458.1,490 		"/>
		<polygon class="st16" points="392.8,365.2 0,592 206,548.4 458.1,402.9 		"/>
		<polygon class="st17" points="458.1,240.4 382.7,283.9 458.1,327.4 		"/>
		<polygon class="st18" points="458.1,327.4 382.7,283.9 176.6,240.4 458.1,402.9 		"/>
		<polygon class="st19" points="458.1,240.4 458.1,490 533.5,371 		"/>
	</g>
</g>
</svg>
