<?xml version="1.0" encoding="UTF-8" standalone="no"?>
<!-- Created with Inkscape (http://www.inkscape.org/) -->
<svg
   xmlns:svg="http://www.w3.org/2000/svg"
   xmlns="http://www.w3.org/2000/svg"
   version="1.0"
   width="1133.8583"
   height="312.87399"
   id="svg2">
  <defs
     id="defs4" />
  <g
     transform="translate(126.55357,-321.05994)"
     id="layer1">
    <g
       transform="translate(35.433058,35.399936)"
       id="g2639">
      <path
         d="M -126.55357,321.40411 L 74.402086,321.40411 L 74.402086,357.36983 L -8.3756143,357.36983 L -8.3756143,561.17721 L -44.916514,561.17721 L -44.916514,357.36983 L -126.55357,357.36983 L -126.55357,321.40411 z"
         id="path2460"
         style="fill:#ed192e;fill-opacity:1;fill-rule:nonzero;stroke:none" />
      <path
         d="M 103.44999,422.11796 L 93.174086,455.23198 C 110.45139,458.26559 123.36269,473.18289 123.43149,491.20262 C 123.36269,511.30212 106.99989,527.66493 86.890586,527.73868 C 66.623886,527.66493 50.261086,511.30212 50.349586,491.20262 C 50.261086,473.40414 62.852786,458.63926 79.471286,455.23198 L 69.765686,422.11796 C 38.726486,429.57169 15.632686,457.64117 15.524586,491.20262 C 15.632686,530.42812 47.497886,562.29822 86.890586,562.56864 C 126.13079,562.29822 157.99579,530.42812 158.26129,491.20262 C 157.99579,457.46417 134.64659,429.26193 103.44999,422.11796"
         id="path2464"
         style="fill:#ed192e;fill-opacity:1;fill-rule:evenodd;stroke:none" />
      <path
         d="M 171.95929,560.85271 L 207.92989,560.85271 L 207.92989,321.05994 L 171.95929,321.05994 L 171.95929,560.85271 z"
         id="path2466"
         style="fill:#ed192e;fill-opacity:1;fill-rule:nonzero;stroke:none" />
      <path
         d="M 226.20039,560.85271 L 262.74139,560.85271 L 262.74139,321.05994 L 226.20039,321.05994 L 226.20039,560.85271 z"
         id="path2468"
         style="fill:#ed192e;fill-opacity:1;fill-rule:nonzero;stroke:none" />
      <path
         d="M 364.93539,391.28528 L 364.93539,391.28528 C 375.68329,392.08179 330.47399,372.78371 330.68049,373.01479 C 330.47399,372.78371 285.26979,388.22217 277.01479,446.09674 C 276.99979,446.11149 264.87519,497.37801 304.98569,538.58494 C 305.11869,538.72752 321.10269,556.91934 347.81029,560.85271 C 347.56439,560.77896 365.75629,555.26733 380.91939,542.01188 C 381.18999,542.03647 401.58919,559.12694 416.88999,560.85271 C 417.02299,560.77896 487.03689,546.99742 486.54519,460.94028 L 448.28849,440.38353 C 448.44549,440.59494 466.08659,498.48427 416.31969,524.31173 C 416.47229,524.3904 390.01059,517.77743 381.48969,475.78382 C 381.74579,475.87724 370.71739,515.56983 346.66489,523.74139 C 346.46309,523.84465 301.80989,509.50753 312.98029,447.23742 C 312.83789,447.21283 313.38859,428.46543 338.67499,403.84747 C 338.74389,403.66063 354.72829,390.98044 364.93539,391.28528"
         id="path2472"
         style="fill:#ed192e;fill-opacity:1;fill-rule:evenodd;stroke:none" />
      <path
         d="M 586.46259,422.11796 L 576.17679,455.23198 C 593.36559,458.26559 606.27689,473.18289 606.43929,491.20262 C 606.27689,511.30212 589.91409,527.66493 569.90309,527.73868 C 549.54319,527.66493 533.17529,511.30212 533.35739,491.20262 C 533.17529,473.40414 545.76719,458.63926 562.47889,455.23198 L 552.77329,422.11796 C 521.64069,429.57169 498.54199,457.64117 498.53219,491.20262 C 498.54199,530.42812 530.41719,562.29822 569.90309,562.56864 C 609.04009,562.29822 640.91019,530.42812 640.69899,491.20262 C 640.91019,457.46417 617.56089,429.26193 586.46259,422.11796"
         id="path2476"
         style="fill:#ed192e;fill-opacity:1;fill-rule:evenodd;stroke:none" />
      <path
         d="M 721.77039,562.56864 L 712.06479,528.87935 C 728.96329,525.87033 741.87459,510.95304 741.75659,492.91364 C 741.87459,472.83872 725.51219,456.471 705.21559,456.37266 C 685.13579,456.471 668.76829,472.83872 668.67499,492.91364 C 668.76829,510.73179 681.36489,525.50158 698.35699,528.87935 L 688.08579,561.9983 C 657.23839,554.56424 634.14009,526.48983 634.42009,492.91364 C 634.14009,453.70781 666.00979,421.8377 705.21559,422.11796 C 744.63309,421.8377 776.50789,453.70781 776.57669,492.91364 C 776.50789,526.67175 753.15349,554.86907 721.77039,562.56864"
         id="path2480"
         style="fill:#ed192e;fill-opacity:1;fill-rule:evenodd;stroke:none" />
      <path
         d="M 827.96139,490.62737 C 828.12859,470.52295 844.51579,454.14048 864.50239,454.08639 C 884.94609,454.14048 901.32339,470.52295 901.61369,490.62737 C 901.32339,510.95304 884.94609,527.34043 864.50239,527.16834 C 844.51579,527.34043 828.12859,510.95304 827.96139,490.62737 M 900.47299,321.05994 L 936.43859,321.05994 L 936.43859,560.85271 L 899.89759,560.85271 L 899.89759,554.57407 L 899.32729,554.00373 C 889.16929,559.80545 877.32519,563.02589 864.50239,563.13406 C 824.79979,563.02589 792.43799,530.66412 792.56589,490.62737 C 792.43799,450.81678 824.79979,418.45009 864.50239,418.69101 C 877.77239,418.45009 890.02479,421.90654 900.47299,427.82625 L 900.47299,321.05994 z"
         id="path2484"
         style="fill:#ed192e;fill-opacity:1;fill-rule:evenodd;stroke:none" />
    </g>
  </g>
</svg>
