<?xml version="1.0" encoding="UTF-8"?>
<!-- Generator: https://ezgif.com/png-to-svg -->
<svg version="1.1" xmlns="http://www.w3.org/2000/svg" width="2968" height="2091">
<path d="M0 0 C1.24 0 1.24 0 2.5 0 C17.61 0.04 32.58 0.65 47.62 2.19 C48.38 2.27 49.14 2.34 49.93 2.42 C118.2 9.48 185.51 21.9 250.74 43.56 C252.54 44.16 254.33 44.75 256.13 45.33 C283.71 54.38 310.48 65.6 336.62 78.19 C338.15 78.92 338.15 78.92 339.7 79.67 C375.46 96.98 409.15 117.95 440.62 142.19 C441.23 142.65 441.83 143.11 442.45 143.58 C455.51 153.62 467.9 164.35 479.93 175.61 C481.7 177.26 483.49 178.89 485.28 180.53 C493.61 188.16 501.46 196.11 509.06 204.47 C510.5 206.05 511.95 207.62 513.41 209.19 C518.3 214.5 522.95 219.96 527.48 225.58 C529.45 227.97 531.48 230.27 533.56 232.56 C543.8 243.99 552.6 256.8 561.62 269.19 C562.31 270.12 562.31 270.12 563 271.07 C571.51 282.69 579.67 294.5 587.62 306.5 C588.19 307.35 588.76 308.2 589.34 309.08 C602.17 328.38 614.35 347.93 625.62 368.19 C626.16 369.14 626.69 370.09 627.23 371.07 C673.49 454.36 688.69 547.23 696.38 641.12 C696.46 642.21 696.46 642.21 696.55 643.31 C697.52 655.26 698.1 667.21 698.62 679.19 C660.2 690.74 621.77 702.25 583.31 713.69 C581.48 714.23 579.65 714.78 577.82 715.32 C573.44 716.63 569.05 717.93 564.67 719.24 C563.06 719.71 561.45 720.19 559.85 720.67 C557.62 721.33 555.39 722 553.16 722.66 C551.91 723.03 550.67 723.4 549.39 723.78 C548.69 723.98 547.98 724.18 547.26 724.39 C545.15 725.03 543.05 725.72 540.97 726.44 C530.11 730.05 520.32 730.89 508.93 730.79 C507.07 730.79 505.22 730.79 503.36 730.8 C498.2 730.81 493.05 730.79 487.9 730.76 C482.1 730.74 476.3 730.74 470.5 730.74 C460.04 730.74 449.58 730.72 439.11 730.68 C427.78 730.64 416.44 730.61 405.1 730.6 C403.64 730.59 402.18 730.59 400.72 730.59 C398.5 730.59 396.27 730.58 394.05 730.58 C354.39 730.52 314.73 730.4 275.06 730.27 C256.96 730.21 238.86 730.15 220.76 730.1 C214.4 730.08 208.04 730.06 201.68 730.04 C200.97 730.04 200.26 730.03 199.52 730.03 C124.76 729.81 50 729.56 -24.76 729.3 C-34.24 729.27 -43.71 729.23 -53.18 729.2 C-88.39 729.08 -123.59 728.96 -158.79 728.82 C-161.67 728.81 -164.55 728.8 -167.44 728.79 C-168.5 728.78 -168.5 728.78 -169.58 728.78 C-180.2 728.74 -190.81 728.7 -201.43 728.66 C-213.37 728.62 -225.31 728.58 -237.26 728.53 C-243.31 728.5 -249.37 728.48 -255.43 728.46 C-260.96 728.44 -266.49 728.42 -272.02 728.4 C-274.01 728.39 -276.01 728.38 -278 728.38 C-287.84 728.35 -297.58 728.27 -307.38 727.19 C-304.37 725.19 -302.11 724.38 -298.67 723.37 C-297.48 723.02 -296.28 722.66 -295.05 722.3 C-293.72 721.91 -292.39 721.52 -291.06 721.13 C-289.65 720.71 -288.24 720.3 -286.83 719.88 C-283.77 718.97 -280.72 718.07 -277.66 717.17 C-270.21 714.98 -262.76 712.78 -255.31 710.58 C-252.65 709.79 -249.98 709 -247.32 708.21 C-226.32 702 -205.35 695.7 -184.38 689.4 C-180.4 688.21 -176.41 687.01 -172.42 685.81 C-163.78 683.22 -155.15 680.62 -146.51 678.03 C-145.21 677.64 -143.9 677.25 -142.6 676.87 C-141.11 676.41 -139.63 675.93 -138.17 675.42 C-131.83 673.31 -126.21 672.78 -119.56 672.88 C-118.53 672.89 -117.5 672.89 -116.44 672.89 C-113.05 672.91 -109.66 672.94 -106.27 672.98 C-103.85 672.99 -101.43 673.01 -99.01 673.02 C-93.96 673.04 -88.92 673.08 -83.88 673.12 C-76.82 673.19 -69.77 673.23 -62.71 673.26 C-49.78 673.33 -36.86 673.42 -23.93 673.51 C-17.96 673.55 -11.98 673.6 -6.01 673.64 C7.65 673.73 21.31 673.83 34.97 673.93 C45.52 674.01 56.06 674.08 66.61 674.16 C69.67 674.18 72.74 674.2 75.8 674.22 C76.57 674.23 77.33 674.23 78.11 674.24 C99.45 674.39 120.79 674.55 142.13 674.7 C142.93 674.71 143.73 674.71 144.56 674.72 C148.6 674.75 152.65 674.78 156.7 674.81 C157.5 674.81 158.31 674.82 159.14 674.82 C160.76 674.84 162.39 674.85 164.01 674.86 C189.36 675.04 214.71 675.22 240.07 675.4 C268.69 675.6 297.32 675.81 325.95 676.02 C329.01 676.04 332.06 676.06 335.12 676.08 C335.87 676.09 336.62 676.09 337.4 676.1 C349.43 676.19 361.46 676.27 373.5 676.36 C385.59 676.44 397.69 676.53 409.78 676.62 C416.31 676.67 422.85 676.71 429.38 676.76 C480.32 677.1 480.32 677.1 502.62 678.19 C502.55 676.25 502.55 676.25 502.48 674.28 C502.46 673.55 502.43 672.82 502.4 672.08 C499.44 590.98 481.94 515.27 445.73 442.41 C444.53 440 443.34 437.59 442.16 435.18 C427.94 406.19 427.94 406.19 412.26 377.96 C410.4 374.81 408.57 371.65 406.74 368.48 C398.91 355 390.75 341.83 381.62 329.19 C381.11 328.48 380.6 327.77 380.08 327.05 C374.1 318.82 367.85 310.9 361.2 303.2 C358.8 300.39 356.49 297.52 354.19 294.62 C350.37 289.93 346.24 285.68 341.92 281.46 C339.21 278.8 336.62 276.11 334.19 273.19 C330.26 268.59 325.76 264.6 321.29 260.54 C318.71 258.19 316.15 255.8 313.61 253.4 C307.01 247.13 300.39 241.04 293.27 235.36 C290.28 232.91 287.45 230.32 284.62 227.69 C280.05 223.43 275.33 219.41 270.46 215.49 C267.92 213.43 265.43 211.33 262.94 209.2 C256.29 203.52 249.48 198.06 242.57 192.7 C240.48 191.08 238.41 189.44 236.34 187.8 C212.69 169.18 187.68 152.25 161.62 137.19 C160.9 136.76 160.17 136.34 159.42 135.9 C86.66 93.65 -3.56 70.65 -108.38 56.19 C-109.49 56.06 -110.61 55.93 -111.76 55.79 C-219.24 43.73 -311.75 79.68 -408.57 150.92 C-412.63 154.16 -416.65 157.45 -420.65 160.76 C-422.21 162.05 -423.78 163.31 -425.36 164.58 C-432.1 169.99 -438.43 175.76 -444.74 181.66 C-446.88 183.66 -449.04 185.62 -451.2 187.59 C-457.98 193.76 -464.46 200.02 -470.44 206.98 C-472.62 209.47 -474.87 211.89 -477.12 214.31 C-481.87 219.52 -486.23 224.96 -490.53 230.54 C-492.41 232.97 -494.33 235.37 -496.28 237.75 C-503.53 246.58 -510.08 255.76 -516.42 265.27 C-518.21 267.94 -520.01 270.61 -521.82 273.28 C-539.36 299.16 -555.56 325.64 -570.38 353.19 C-570.99 354.33 -571.61 355.48 -572.24 356.66 C-607.38 422.41 -633.46 493.97 -648.87 610.34 C-651.95 652.45 -651.95 652.45 -656.38 669.19 C-656.57 669.96 -656.76 670.74 -656.96 671.54 C-658.53 677.12 -660.39 679.88 -665.38 683.19 C-693.5 698.63 -728.55 704.53 -759.38 712.19 C-760.48 712.46 -760.48 712.46 -761.61 712.74 C-772.43 715.43 -783.27 718.09 -794.11 720.71 C-797.46 721.52 -800.81 722.34 -804.16 723.16 C-808.17 724.15 -812.17 725.11 -816.19 726.07 C-817.66 726.42 -819.13 726.78 -820.6 727.14 C-828.71 729.16 -836.57 730.44 -844.92 730.78 C-845.83 730.82 -846.73 730.86 -847.67 730.9 C-858.53 731.33 -869.4 731.34 -880.27 731.33 C-882.6 731.34 -884.93 731.34 -887.26 731.34 C-893.58 731.35 -899.9 731.35 -906.22 731.35 C-910.23 731.36 -914.25 731.36 -918.26 731.36 C-936.39 731.38 -954.52 731.38 -972.65 731.38 C-977.99 731.38 -983.32 731.37 -988.65 731.37 C-1074.89 731.37 -1161.12 731.13 -1300.02 729.44 C-1316.44 729.22 -1332.87 729.02 -1349.29 728.81 C-1378.08 728.46 -1406.86 728.09 -1435.65 727.72 C-1440.74 727.66 -1445.83 727.59 -1450.93 727.53 C-1464.21 727.36 -1477.5 727.19 -1490.78 727.01 C-1496.3 726.93 -1501.82 726.86 -1507.34 726.79 C-1512.43 726.72 -1517.53 726.65 -1522.63 726.58 C-1524.46 726.56 -1526.3 726.53 -1528.13 726.51 C-1540.57 726.36 -1552.96 725.88 -1565.38 725.19 C-1562.54 723.3 -1560.69 722.58 -1557.46 721.69 C-1556.44 721.41 -1555.42 721.12 -1554.37 720.83 C-1553.25 720.52 -1552.12 720.21 -1550.96 719.9 C-1549.16 719.4 -1549.16 719.4 -1547.32 718.89 C-1543.98 717.97 -1540.64 717.06 -1537.3 716.14 C-1534.47 715.37 -1531.64 714.59 -1528.81 713.81 C-1518.33 710.92 -1507.85 708.05 -1497.38 705.19 C-1496 704.81 -1496 704.81 -1494.6 704.43 C-1476.05 699.36 -1457.51 694.3 -1438.96 689.25 C-1438.04 689 -1437.11 688.75 -1436.16 688.49 C-1431.83 687.31 -1427.5 686.13 -1423.17 684.95 C-1421.6 684.53 -1420.03 684.1 -1418.47 683.67 C-1417.81 683.49 -1417.15 683.32 -1416.48 683.13 C-1415.81 682.95 -1415.13 682.77 -1414.44 682.58 C-1413.73 682.39 -1413.01 682.2 -1412.28 682.01 C-1410.07 681.38 -1407.89 680.7 -1405.71 679.98 C-1393.55 676.09 -1382.3 675.49 -1369.6 675.58 C-1367.45 675.58 -1365.31 675.57 -1363.16 675.56 C-1357.31 675.55 -1351.46 675.57 -1345.61 675.59 C-1339.28 675.61 -1332.95 675.6 -1326.62 675.6 C-1315.66 675.59 -1304.7 675.6 -1293.75 675.63 C-1282.25 675.65 -1270.75 675.67 -1259.25 675.67 C-1258.18 675.67 -1258.18 675.67 -1257.08 675.67 C-1253.44 675.68 -1249.79 675.68 -1246.15 675.68 C-1220.36 675.68 -1194.58 675.71 -1168.8 675.76 C-1143.82 675.8 -1118.84 675.83 -1093.87 675.84 C-1093.1 675.84 -1092.33 675.84 -1091.54 675.84 C-1085.35 675.84 -1079.16 675.84 -1072.97 675.85 C-1046.19 675.86 -1019.4 675.88 -992.62 675.91 C-988.3 675.91 -983.99 675.92 -979.68 675.92 C-963.84 675.93 -948 675.95 -932.17 675.98 C-925.92 675.99 -919.67 676 -913.43 676 C-907.69 676.01 -901.95 676.01 -896.22 676.03 C-894.16 676.03 -892.1 676.03 -890.04 676.03 C-875.13 676.04 -860.27 676.5 -845.38 677.19 C-845.3 676.47 -845.23 675.75 -845.16 675.01 C-845.01 673.59 -845.01 673.59 -844.87 672.14 C-844.78 671.2 -844.68 670.27 -844.59 669.3 C-841.38 637.92 -834.73 606.83 -827.38 576.19 C-827.2 575.45 -827.02 574.71 -826.84 573.95 C-808.16 496.15 -778.14 419.38 -734.38 352.19 C-733.66 351.08 -732.94 349.98 -732.2 348.84 C-727.13 341.14 -721.8 333.63 -716.38 326.19 C-715.91 325.54 -715.44 324.9 -714.95 324.23 C-708.3 315.13 -701.33 306.42 -693.9 297.94 C-692.32 296.12 -690.76 294.29 -689.2 292.45 C-680.07 281.67 -680.07 281.67 -675.05 276.87 C-673.37 275.18 -671.83 273.43 -670.29 271.61 C-665.93 266.61 -661.26 261.93 -656.57 257.25 C-655.64 256.32 -654.72 255.39 -653.76 254.44 C-651.81 252.49 -649.87 250.54 -647.91 248.6 C-645.44 246.12 -642.96 243.65 -640.49 241.17 C-638.1 238.77 -635.71 236.39 -633.32 234 C-632.44 233.12 -631.56 232.24 -630.66 231.33 C-626.25 226.94 -621.78 222.68 -617.05 218.62 C-614.67 216.58 -612.37 214.44 -610.06 212.31 C-605.65 208.29 -601.14 204.46 -596.49 200.71 C-594.16 198.84 -591.86 196.93 -589.57 195 C-579.15 186.28 -568.41 178.12 -557.38 170.19 C-556.66 169.67 -555.94 169.15 -555.2 168.62 C-529.27 149.9 -501.97 133.53 -473.38 119.19 C-472.45 118.72 -471.52 118.26 -470.57 117.78 C-444.97 105.02 -418.37 95.06 -391.34 85.86 C-389.52 85.24 -387.71 84.62 -385.89 83.99 C-356.28 73.91 -325.93 66.05 -295.6 58.43 C-294.78 58.23 -293.95 58.02 -293.1 57.81 C-286.27 56.09 -279.43 54.37 -272.59 52.66 C-250.76 47.2 -229.02 41.57 -207.44 35.19 C-151.71 18.75 -94.54 4.98 -36.38 1.19 C-34.41 1.06 -34.41 1.06 -32.4 0.93 C-21.6 0.25 -10.83 -0.02 0 0 Z " fill="#FFFFFF" transform="translate(1565.375,-0.1875)"/>
<path d="M0 0 C4.86 -0 9.73 -0.01 14.59 -0.01 C29.78 -0.02 44.98 -0.02 60.17 -0.02 C65.02 -0.02 69.87 -0.02 74.72 -0.02 C160.49 -0.02 246.25 0.33 391.12 2.04 C403.36 2.19 415.59 2.34 427.82 2.49 C459.32 2.88 490.81 3.28 522.31 3.68 C526.12 3.73 529.94 3.78 533.75 3.83 C548.19 4.01 562.63 4.2 577.07 4.39 C581.45 4.45 585.83 4.51 590.21 4.57 C612.95 4.86 635.67 5.22 658.39 6.17 C656.07 8.49 654.72 8.8 651.59 9.66 C650.57 9.94 649.55 10.22 648.51 10.5 C647.39 10.8 646.27 11.11 645.11 11.42 C643.93 11.74 642.75 12.06 641.54 12.39 C638.29 13.28 635.04 14.16 631.79 15.04 C628.34 15.98 624.9 16.92 621.46 17.86 C614.88 19.65 608.3 21.44 601.72 23.22 C594.42 25.2 587.12 27.19 579.81 29.18 C570.82 31.63 561.83 34.08 552.84 36.52 C551.64 36.85 550.44 37.18 549.21 37.51 C546.6 38.22 543.99 38.92 541.38 39.6 C534.68 41.38 528.05 43.24 521.46 45.4 C491.82 55.09 464.15 56.9 433.12 56.64 C427.14 56.61 421.17 56.63 415.19 56.65 C403 56.69 390.81 56.67 378.62 56.62 C366.59 56.57 354.56 56.55 342.52 56.56 C341.77 56.56 341.02 56.56 340.24 56.56 C336.41 56.56 332.58 56.57 328.75 56.57 C301.76 56.59 274.78 56.56 247.79 56.5 C221.61 56.44 195.43 56.4 169.25 56.4 C168.44 56.4 167.63 56.4 166.79 56.4 C158.66 56.4 150.52 56.4 142.39 56.4 C125.82 56.4 109.26 56.39 92.69 56.39 C91.55 56.39 91.55 56.39 90.38 56.39 C39.72 56.37 -10.95 56.28 -61.61 56.17 C-61.78 57.37 -61.95 58.58 -62.13 59.83 C-62.77 64.36 -63.41 68.89 -64.05 73.43 C-64.33 75.38 -64.61 77.33 -64.88 79.28 C-66.84 93.14 -68.95 106.9 -71.8 120.6 C-71.98 121.51 -72.17 122.41 -72.36 123.34 C-78.99 155.81 -87.51 187.75 -97.95 219.19 C-98.6 221.13 -99.23 223.06 -99.87 225 C-117.72 279.03 -141.52 331.45 -172.61 379.17 C-173.03 379.82 -173.46 380.47 -173.89 381.15 C-184.54 397.54 -196.09 413.16 -208.61 428.17 C-209.09 428.74 -209.56 429.32 -210.06 429.91 C-216.08 437.18 -222.32 444.2 -228.77 451.1 C-231.3 453.82 -233.77 456.58 -236.24 459.35 C-240.09 463.67 -244.16 467.73 -248.27 471.8 C-250.31 473.86 -252.23 475.97 -254.11 478.17 C-260.04 485.07 -266.57 491.35 -273.48 497.26 C-276.13 499.63 -278.62 502.14 -281.11 504.67 C-284.81 508.41 -288.59 512.01 -292.59 515.43 C-294.91 517.43 -297.16 519.48 -299.42 521.54 C-304.67 526.27 -310.12 530.73 -315.61 535.17 C-316.84 536.18 -318.07 537.19 -319.3 538.2 C-349.4 562.93 -381.68 584.08 -415.61 603.17 C-416.36 603.59 -417.11 604.02 -417.88 604.46 C-471.84 634.97 -533.22 652.81 -593.29 666.57 C-593.98 666.72 -594.66 666.88 -595.36 667.04 C-596.38 667.28 -596.38 667.28 -597.42 667.51 C-620.95 672.93 -644.1 679.9 -667.16 687.01 C-727.52 705.62 -789.73 719.57 -852.5 726.92 C-854.53 727.16 -856.56 727.41 -858.59 727.66 C-901.76 732.93 -945.8 731.61 -988.79 725.56 C-991.66 725.16 -994.54 724.77 -997.41 724.37 C-1080.15 712.95 -1161.19 691.97 -1236.98 656.4 C-1239.35 655.29 -1241.73 654.2 -1244.11 653.12 C-1255.93 647.73 -1267.3 641.55 -1278.61 635.17 C-1279.5 634.67 -1280.39 634.16 -1281.3 633.65 C-1309.59 617.56 -1336.64 599.02 -1361.61 578.17 C-1362.19 577.68 -1362.77 577.2 -1363.37 576.71 C-1370.35 570.91 -1377.14 564.94 -1383.79 558.77 C-1386.31 556.45 -1388.86 554.18 -1391.42 551.92 C-1400.37 543.89 -1409.12 535.37 -1416.88 526.17 C-1418.72 524.04 -1420.63 521.97 -1422.55 519.9 C-1438.61 502.6 -1438.61 502.6 -1438.61 499.17 C-1439.16 498.98 -1439.71 498.79 -1440.28 498.59 C-1443.65 496.53 -1445.59 493.52 -1447.86 490.35 C-1448.93 488.9 -1449.99 487.44 -1451.06 485.99 C-1451.63 485.21 -1452.2 484.43 -1452.79 483.63 C-1455.35 480.17 -1457.98 476.76 -1460.61 473.35 C-1466.88 465.2 -1472.95 456.98 -1478.7 448.46 C-1480.93 445.15 -1483.2 441.89 -1485.49 438.63 C-1492.75 428.3 -1499.81 417.93 -1506.38 407.15 C-1507.69 405.05 -1509.02 402.96 -1510.36 400.88 C-1564.11 317.24 -1588.89 227.43 -1605.61 52.17 C-1595.99 49.29 -1586.36 46.42 -1576.74 43.54 C-1576 43.32 -1575.26 43.1 -1574.5 42.88 C-1555.92 37.33 -1537.33 31.78 -1518.74 26.26 C-1517.92 26.01 -1517.11 25.77 -1516.27 25.52 C-1508.32 23.16 -1500.37 20.8 -1492.42 18.44 C-1489.44 17.55 -1486.46 16.67 -1483.48 15.78 C-1481.51 15.2 -1479.55 14.61 -1477.58 14.03 C-1476.64 13.75 -1476.64 13.75 -1475.68 13.46 C-1474.39 13.08 -1473.11 12.71 -1471.82 12.35 C-1467.38 11.07 -1463.07 9.6 -1458.75 7.96 C-1436.74 0.01 -1415.64 -0.04 -1392.46 0.22 C-1386.82 0.28 -1381.19 0.28 -1375.55 0.29 C-1365.73 0.31 -1355.91 0.36 -1346.09 0.43 C-1331.57 0.55 -1317.06 0.6 -1302.54 0.65 C-1295.64 0.67 -1288.74 0.7 -1281.84 0.72 C-1281.15 0.73 -1280.46 0.73 -1279.74 0.73 C-1264.64 0.79 -1249.54 0.87 -1234.43 0.96 C-1200 1.15 -1165.56 1.27 -1131.13 1.36 C-1117.85 1.39 -1104.58 1.43 -1091.31 1.46 C-1089.83 1.47 -1088.35 1.47 -1086.87 1.47 C-1051.85 1.57 -1016.84 1.7 -981.82 1.83 C-981.08 1.83 -980.34 1.83 -979.58 1.84 C-966.86 1.89 -954.14 1.93 -941.42 1.98 C-918.41 2.07 -895.41 2.16 -872.4 2.24 C-845.05 2.33 -817.7 2.43 -790.35 2.53 C-787.44 2.55 -784.52 2.56 -781.61 2.57 C-780.53 2.57 -780.53 2.57 -779.43 2.58 C-768.81 2.62 -758.19 2.65 -747.57 2.69 C-735.59 2.73 -723.62 2.78 -711.64 2.83 C-705.58 2.85 -699.53 2.87 -693.47 2.89 C-662.17 3 -630.9 3.43 -599.61 4.17 C-602.22 5.91 -603.84 6.67 -606.76 7.54 C-607.62 7.8 -608.48 8.05 -609.37 8.32 C-610.32 8.6 -611.28 8.88 -612.27 9.17 C-613.3 9.48 -614.34 9.79 -615.41 10.11 C-618.98 11.18 -622.54 12.23 -626.11 13.29 C-628.67 14.05 -631.23 14.82 -633.79 15.58 C-638.14 16.88 -642.5 18.18 -646.86 19.47 C-661.3 23.77 -675.73 28.09 -690.16 32.41 C-692.59 33.13 -695.01 33.86 -697.43 34.59 C-701.1 35.68 -704.76 36.78 -708.42 37.87 C-720.39 41.46 -732.35 45.04 -744.32 48.62 C-746.51 49.27 -748.7 49.92 -750.88 50.58 C-753.9 51.48 -756.92 52.38 -759.95 53.29 C-760.83 53.55 -761.71 53.82 -762.62 54.09 C-763.44 54.33 -764.26 54.58 -765.11 54.83 C-765.81 55.04 -766.52 55.25 -767.25 55.47 C-768.03 55.7 -768.81 55.93 -769.61 56.17 C-770.61 56.52 -771.6 56.87 -772.63 57.24 C-777.92 58.73 -783.33 58.43 -788.79 58.39 C-790.67 58.39 -790.67 58.39 -792.6 58.39 C-796.16 58.39 -799.72 58.37 -803.29 58.35 C-806.44 58.34 -809.59 58.33 -812.74 58.33 C-825.03 58.3 -837.32 58.23 -849.61 58.17 C-850.69 58.16 -851.77 58.16 -852.89 58.15 C-889.77 57.95 -926.65 57.69 -963.53 57.42 C-974.06 57.35 -984.6 57.27 -995.14 57.2 C-998.21 57.18 -1001.28 57.15 -1004.35 57.13 C-1005.5 57.12 -1005.5 57.12 -1006.66 57.12 C-1028 56.96 -1049.33 56.81 -1070.66 56.65 C-1071.46 56.65 -1072.26 56.64 -1073.08 56.64 C-1077.11 56.61 -1081.15 56.58 -1085.18 56.55 C-1085.98 56.54 -1086.78 56.54 -1087.61 56.53 C-1089.23 56.52 -1090.85 56.51 -1092.47 56.5 C-1117.82 56.31 -1143.17 56.13 -1168.53 55.95 C-1197.18 55.75 -1225.84 55.55 -1254.5 55.34 C-1257.55 55.32 -1260.6 55.29 -1263.65 55.27 C-1264.4 55.27 -1265.15 55.26 -1265.92 55.25 C-1277.23 55.17 -1288.54 55.09 -1299.85 55.01 C-1312.66 54.92 -1325.48 54.83 -1338.29 54.74 C-1344.82 54.69 -1351.35 54.64 -1357.89 54.6 C-1363.86 54.56 -1369.83 54.51 -1375.81 54.46 C-1377.97 54.45 -1380.13 54.43 -1382.29 54.42 C-1385.23 54.4 -1388.17 54.38 -1391.1 54.35 C-1392.36 54.35 -1392.36 54.35 -1393.65 54.34 C-1399.03 54.29 -1404.26 53.84 -1409.61 53.17 C-1407.55 107.56 -1401.34 160.12 -1384.61 212.17 C-1384.24 213.33 -1383.86 214.5 -1383.47 215.7 C-1367.32 265.4 -1342.82 313.04 -1316.61 358.17 C-1316.08 359.08 -1315.56 360 -1315.01 360.94 C-1300.34 386.44 -1284.05 411.03 -1264.61 433.17 C-1263.66 434.27 -1263.66 434.27 -1262.69 435.39 C-1261.01 437.32 -1259.31 439.25 -1257.61 441.17 C-1256.99 441.87 -1256.37 442.57 -1255.74 443.3 C-1250.07 449.68 -1244.16 455.77 -1238.12 461.79 C-1236.54 463.36 -1234.97 464.93 -1233.41 466.51 C-1227.98 471.94 -1222.46 477.18 -1216.61 482.17 C-1215 483.62 -1213.4 485.08 -1211.8 486.54 C-1207.48 490.44 -1203.04 494.14 -1198.52 497.79 C-1195.96 499.88 -1193.43 502.01 -1190.92 504.16 C-1184.21 509.89 -1177.34 515.38 -1170.38 520.79 C-1167.45 523.07 -1164.53 525.37 -1161.61 527.67 C-1160.44 528.59 -1159.27 529.51 -1158.09 530.43 C-1155.81 532.22 -1153.53 534.02 -1151.25 535.81 C-1148.35 538.1 -1145.44 540.38 -1142.53 542.66 C-1141.2 543.71 -1139.86 544.75 -1138.53 545.8 C-1058.04 609.2 -969.14 641.38 -679.18 670.99 C-676.99 670.72 -674.8 670.45 -672.61 670.17 C-671.13 669.99 -671.13 669.99 -669.62 669.8 C-653.89 667.79 -640.06 662.58 -625.61 656.17 C-624.52 655.69 -623.43 655.21 -622.31 654.71 C-598.34 644.06 -575.09 632.67 -554.42 616.35 C-547.02 610.54 -539.12 605.55 -531.22 600.44 C-524.43 596.06 -517.67 591.62 -510.94 587.15 C-509.66 586.3 -508.38 585.46 -507.1 584.61 C-490.86 573.91 -475.64 561.96 -461.39 548.73 C-459.12 546.64 -456.83 544.61 -454.49 542.6 C-447.62 536.64 -441.28 530.12 -435.37 523.21 C-433.41 520.94 -431.39 518.75 -429.36 516.54 C-424.81 511.5 -420.64 506.22 -416.49 500.85 C-414.59 498.41 -412.66 496 -410.7 493.6 C-403.26 484.53 -396.6 475.07 -390.07 465.33 C-388.08 462.38 -386.03 459.46 -383.99 456.54 C-363.97 427.65 -346.15 397.16 -329.61 366.17 C-328.89 364.82 -328.89 364.82 -328.15 363.44 C-303.52 317.27 -282.22 269.09 -269.61 218.17 C-269.37 217.24 -269.13 216.32 -268.88 215.37 C-263.33 193.98 -262.06 171.67 -259.95 149.75 C-258.96 139.43 -257.95 129.11 -256.93 118.8 C-256.56 115.04 -256.2 111.29 -255.84 107.53 C-254.65 95.21 -253.26 82.94 -251.55 70.68 C-251.39 69.5 -251.23 68.32 -251.06 67.1 C-250.9 66 -250.74 64.9 -250.58 63.77 C-250.44 62.81 -250.3 61.84 -250.16 60.85 C-248.9 54.71 -246.86 52.09 -241.85 48.56 C-238.37 46.39 -234.8 44.82 -230.99 43.35 C-230.13 43.02 -229.27 42.69 -228.39 42.34 C-190.94 28.17 -150.98 19.89 -112.11 10.6 C-110.99 10.34 -110.99 10.34 -109.85 10.06 C-105.5 9.03 -101.15 7.99 -96.8 6.96 C-94.83 6.49 -92.86 6.02 -90.89 5.55 C-89.68 5.27 -88.47 4.98 -87.23 4.69 C-86.19 4.44 -85.15 4.2 -84.07 3.94 C-82.36 3.56 -82.36 3.56 -80.61 3.17 C-79.86 3 -79.1 2.83 -78.33 2.65 C-72.38 1.37 -66.63 0.75 -60.56 0.55 C-58.99 0.5 -58.99 0.5 -57.38 0.44 C-38.27 -0.15 -19.12 0 0 0 Z " fill="#FFFFFF" transform="translate(2309.610251903534,896.8329830169678)"/>
<path d="M0 0 C5.61 0 11.22 0 17 0 C17.69 2.64 18.39 5.28 19.1 8.01 C21.45 16.95 23.81 25.89 26.16 34.83 C27.58 40.22 29 45.62 30.41 51.02 C31.79 56.24 33.16 61.46 34.53 66.69 C35.08 68.78 35.63 70.87 36.18 72.96 C39.26 84.67 42.36 96.36 45.51 108.05 C46.07 110.14 46.63 112.24 47.2 114.34 C48.26 118.3 49.33 122.25 50.41 126.21 C50.89 127.98 51.36 129.76 51.84 131.53 C52.17 132.74 52.17 132.74 52.51 133.97 C53.44 137.47 54 140.35 54 144 C54.66 144 55.32 144 56 144 C56.1 143.39 56.19 142.77 56.29 142.14 C57.69 133.78 59.91 125.7 62.23 117.56 C62.65 116.05 63.08 114.54 63.5 113.03 C64.4 109.83 65.31 106.62 66.21 103.42 C68.36 95.86 70.48 88.29 72.61 80.72 C73.33 78.16 74.06 75.59 74.78 73.03 C79.35 56.81 83.84 40.56 88.31 24.31 C88.66 23.06 89 21.8 89.36 20.51 C91.24 13.67 93.12 6.84 95 0 C100.61 0 106.22 0 112 0 C114.1 5.41 115.87 10.78 117.35 16.38 C117.57 17.18 117.78 17.98 118.01 18.8 C118.71 21.43 119.42 24.07 120.12 26.7 C120.63 28.58 121.13 30.46 121.64 32.34 C122.97 37.31 124.3 42.27 125.63 47.24 C126.94 52.12 128.25 57.01 129.56 61.89 C129.82 62.85 130.08 63.8 130.34 64.79 C130.86 66.73 131.38 68.67 131.9 70.61 C132.42 72.55 132.94 74.48 133.46 76.42 C137.26 90.57 141.08 104.71 144.92 118.84 C145.45 120.8 145.98 122.76 146.52 124.72 C147.25 127.42 147.98 130.12 148.72 132.82 C148.94 133.63 149.15 134.43 149.38 135.26 C150.43 139.22 150.43 139.22 152 143 C152.34 141.73 152.34 141.73 152.68 140.42 C171.94 67.83 171.94 67.83 181.64 31.75 C182.38 29 183.12 26.25 183.86 23.5 C184.87 19.7 185.9 15.9 186.92 12.1 C187.22 10.98 187.52 9.86 187.83 8.7 C188.1 7.69 188.38 6.68 188.66 5.64 C189.01 4.33 189.01 4.33 189.38 2.98 C190 1 190 1 191 0 C193.7 -0.07 196.37 -0.09 199.06 -0.06 C200.48 -0.05 201.89 -0.04 203.31 -0.03 C205.14 -0.01 205.14 -0.01 207 0 C201.8 19.77 196.38 39.46 190.78 59.12 C189.76 62.68 188.75 66.24 187.74 69.79 C186.47 74.26 185.2 78.73 183.93 83.2 C181.02 93.39 178.13 103.59 175.25 113.8 C174.58 116.16 173.91 118.52 173.24 120.88 C173.03 121.65 172.81 122.41 172.59 123.2 C172.15 124.74 171.72 126.27 171.29 127.8 C170.23 131.55 169.17 135.29 168.11 139.04 C167.12 142.55 166.13 146.05 165.14 149.55 C164.6 151.46 164.06 153.36 163.52 155.27 C163.21 156.4 162.89 157.52 162.56 158.69 C162.28 159.67 162 160.65 161.71 161.67 C161 164 161 164 160 166 C154.06 166 148.12 166 142 166 C134.13 137.91 126.5 109.75 118.91 81.58 C116.48 72.55 114.05 63.51 111.61 54.48 C110.77 51.36 109.93 48.24 109.09 45.12 C108.57 43.21 108.06 41.31 107.55 39.4 C107.32 38.55 107.09 37.7 106.85 36.82 C105.61 32.2 104.33 27.59 103 23 C99.27 34.6 96.14 46.36 92.98 58.12 C92.4 60.28 91.82 62.43 91.24 64.59 C89.72 70.24 88.2 75.9 86.68 81.56 C72.43 134.55 72.43 134.55 67.2 153.62 C66.88 154.8 66.56 155.98 66.23 157.2 C65.95 158.24 65.66 159.28 65.36 160.35 C65 161.68 65 161.68 64.63 163.03 C64 165 64 165 63 166 C60.14 166.07 57.3 166.09 54.44 166.06 C53.63 166.06 52.82 166.05 51.99 166.05 C50 166.04 48 166.02 46 166 C44.91 162.16 43.82 158.32 42.72 154.47 C41.74 150.99 40.75 147.51 39.76 144.03 C36.98 134.25 34.2 124.46 31.42 114.67 C30.27 110.61 29.11 106.55 27.96 102.49 C27.67 101.47 27.38 100.45 27.08 99.4 C23.21 85.76 19.32 72.11 15.42 58.47 C13.95 53.33 12.49 48.2 11.02 43.06 C9.64 38.21 8.26 33.37 6.87 28.54 C6.01 25.55 5.16 22.56 4.31 19.57 C3.92 18.2 3.52 16.82 3.13 15.45 C2.59 13.58 2.06 11.72 1.53 9.85 C1.23 8.81 0.94 7.77 0.63 6.7 C0 4 0 4 0 0 Z " fill="#FFFFFF" transform="translate(1831,1822)"/>
<path d="M0 0 C3.63 2.75 6.83 5.74 10 9 C10.7 9.66 11.39 10.33 12.11 11.01 C28.4 27.58 32.72 53.27 33.19 75.56 C32.9 99.76 27.93 124.75 11 143 C10.47 143.62 9.94 144.24 9.4 144.88 C-0.59 155.9 -17.07 163.27 -31.9 164.18 C-60.34 164.72 -60.34 164.72 -72 160 C-73.18 159.53 -74.36 159.05 -75.58 158.56 C-93.33 150.56 -104.98 135.77 -112.26 117.97 C-116.94 105.52 -118.21 93.04 -118.24 79.82 C-118.25 77.6 -118.28 75.38 -118.31 73.15 C-118.49 48.67 -111.58 25.49 -94.31 7.62 C-69.83 -16.39 -28.36 -17.43 0 0 Z M-88.75 24.19 C-103.39 43.97 -104.85 71.83 -101.68 95.37 C-99.17 111.41 -93.04 125.81 -81 137 C-79.95 137.98 -79.95 137.98 -78.89 138.98 C-65.27 150.64 -48.01 151.08 -31 150 C-17.94 148.29 -6.14 140.08 2 130 C16.57 108.33 19.71 81.52 15.41 56.07 C11.84 37.97 3.82 21.7 -11.25 10.56 C-21.45 4.53 -31.05 2.56 -42.75 2.5 C-43.7 2.49 -44.64 2.49 -45.62 2.48 C-63.55 2.8 -77.29 10.66 -88.75 24.19 Z " fill="#FFFFFF" transform="translate(1785,1828)"/>
<path d="M0 0 C1.31 -0.01 2.61 -0.02 3.96 -0.03 C20.24 0.11 35.27 3.76 47.35 15.24 C53.06 21.62 59.31 31.64 59.31 40.44 C57.36 41.11 55.4 41.77 53.44 42.44 C52.35 42.81 51.26 43.18 50.13 43.56 C47.31 44.44 47.31 44.44 45.31 44.44 C44.98 43.54 44.66 42.65 44.32 41.73 C40.61 32.3 36.52 23.85 27.24 18.75 C17.98 14.74 9.81 14.2 -0.19 14.12 C-1.39 14.1 -2.6 14.07 -3.84 14.04 C-15.53 13.96 -27.48 16.22 -36.55 24.05 C-42.72 30.23 -44.55 37.22 -44.78 45.82 C-44.4 54.17 -42.81 60.63 -36.81 66.62 C-25.52 75.17 -9.26 76.46 4.28 78.84 C22.95 82.15 42.15 85.9 54.84 101.25 C62.64 112.84 63.23 128.59 60.63 141.95 C59.71 144.61 58.67 146.97 57.31 149.44 C56.89 150.22 56.46 151 56.03 151.81 C48.63 164.03 37.32 170.26 23.85 174.08 C16.57 175.83 9.46 175.88 2 175.81 C0.7 175.82 -0.6 175.84 -1.94 175.85 C-20.83 175.79 -37.91 171.71 -51.84 158.38 C-59.93 149.93 -64.69 139.19 -64.69 127.44 C-59.74 127.44 -54.79 127.44 -49.69 127.44 C-48.82 129.75 -47.95 132.06 -47.06 134.44 C-42.91 144.96 -38.27 151.62 -27.69 156.44 C-18.15 160.44 -8.78 160.84 1.44 160.94 C3.19 160.97 3.19 160.97 4.97 160.99 C16.77 160.91 28.2 158.31 37.31 150.44 C43.64 143.11 44.85 133.94 44.6 124.55 C44.19 120.13 43.22 116.44 41.31 112.44 C41.04 111.82 40.77 111.21 40.49 110.58 C36.76 103.94 29.22 100.85 22.31 98.44 C16.7 96.86 10.96 95.91 5.22 94.93 C-42.21 86.86 -42.21 86.86 -53.48 72.24 C-60.88 61.18 -62.55 47.94 -60 34.93 C-56.68 23.01 -49.77 14.75 -39.45 7.96 C-26.89 1.06 -14.03 0.06 0 0 Z " fill="#FFFFFF" transform="translate(2114.6875,1816.5625)"/>
<path d="M0 0 C1.31 -0.01 2.61 -0.02 3.96 -0.03 C20.24 0.11 35.27 3.76 47.35 15.24 C53.06 21.62 59.31 31.64 59.31 40.44 C57.36 41.11 55.4 41.77 53.44 42.44 C52.35 42.81 51.26 43.18 50.13 43.56 C47.31 44.44 47.31 44.44 45.31 44.44 C44.98 43.54 44.66 42.65 44.32 41.73 C40.61 32.3 36.52 23.85 27.24 18.75 C17.98 14.74 9.81 14.2 -0.19 14.12 C-1.39 14.1 -2.6 14.07 -3.84 14.04 C-15.53 13.96 -27.48 16.22 -36.55 24.05 C-42.72 30.23 -44.55 37.22 -44.78 45.82 C-44.4 54.17 -42.81 60.63 -36.81 66.62 C-25.52 75.17 -9.26 76.46 4.28 78.84 C22.95 82.15 42.15 85.9 54.84 101.25 C62.64 112.84 63.23 128.59 60.63 141.95 C59.71 144.61 58.67 146.97 57.31 149.44 C56.89 150.22 56.46 151 56.03 151.81 C48.63 164.03 37.32 170.26 23.85 174.08 C16.57 175.83 9.46 175.88 2 175.81 C0.7 175.82 -0.6 175.84 -1.94 175.85 C-20.83 175.79 -37.91 171.71 -51.84 158.38 C-59.93 149.93 -64.69 139.19 -64.69 127.44 C-59.74 127.44 -54.79 127.44 -49.69 127.44 C-48.82 129.75 -47.95 132.06 -47.06 134.44 C-42.91 144.96 -38.27 151.62 -27.69 156.44 C-18.15 160.44 -8.78 160.84 1.44 160.94 C3.19 160.97 3.19 160.97 4.97 160.99 C16.77 160.91 28.2 158.31 37.31 150.44 C43.64 143.11 44.85 133.94 44.6 124.55 C44.19 120.13 43.22 116.44 41.31 112.44 C41.04 111.82 40.77 111.21 40.49 110.58 C36.76 103.94 29.22 100.85 22.31 98.44 C16.7 96.86 10.96 95.91 5.22 94.93 C-42.21 86.86 -42.21 86.86 -53.48 72.24 C-60.88 61.18 -62.55 47.94 -60 34.93 C-56.68 23.01 -49.77 14.75 -39.45 7.96 C-26.89 1.06 -14.03 0.06 0 0 Z " fill="#FFFFFF" transform="translate(1417.6875,1816.5625)"/>
<path d="M0 0 C4.95 0 9.9 0 15 0 C15 24.42 15 48.84 15 74 C45.69 74 76.38 74 108 74 C108 49.58 108 25.16 108 0 C112.95 0 117.9 0 123 0 C123 54.78 123 109.56 123 166 C118.05 166 113.1 166 108 166 C108 139.93 108 113.86 108 87 C77.31 87 46.62 87 15 87 C15 113.07 15 139.14 15 166 C10.05 166 5.1 166 0 166 C0 111.22 0 56.44 0 0 Z " fill="#FFFFFF" transform="translate(1512,1822)"/>
<path d="M0 0 C34.65 0 69.3 0 105 0 C105 4.29 105 8.58 105 13 C75.3 13 45.6 13 15 13 C15 33.13 15 53.26 15 74 C43.38 74 71.76 74 101 74 C101 78.29 101 82.58 101 87 C72.62 87 44.24 87 15 87 C15 108.78 15 130.56 15 153 C46.02 153 77.04 153 109 153 C107 164 107 164 106 166 C71.02 166 36.04 166 0 166 C0 111.22 0 56.44 0 0 Z " fill="#FFFFFF" transform="translate(1173,1822)"/>
<path d="M0 0 C34.65 0 69.3 0 105 0 C105 4.29 105 8.58 105 13 C75.3 13 45.6 13 15 13 C15 33.13 15 53.26 15 74 C43.38 74 71.76 74 101 74 C101 78.29 101 82.58 101 87 C72.62 87 44.24 87 15 87 C15 108.78 15 130.56 15 153 C46.02 153 77.04 153 109 153 C107 164 107 164 106 166 C71.02 166 36.04 166 0 166 C0 111.22 0 56.44 0 0 Z " fill="#FFFFFF" transform="translate(893,1822)"/>
<path d="M0 0 C88.22 0 88.22 0 102.88 13.12 C111.65 22.82 114.4 35.07 114.31 47.75 C114.31 49.06 114.31 49.06 114.3 50.39 C114.06 63.74 110.86 75.39 101.7 85.38 C91.96 94.67 77.59 99.14 64.27 99.11 C63.15 99.11 62.04 99.11 60.89 99.11 C59.73 99.11 58.57 99.1 57.38 99.1 C56.31 99.1 55.23 99.1 54.12 99.09 C50.12 99.09 46.12 99.08 42.12 99.06 C28.7 99.03 28.7 99.03 15 99 C15 121.11 15 143.22 15 166 C10.05 166 5.1 166 0 166 C0 111.22 0 56.44 0 0 Z M15 12 C15 36.75 15 61.5 15 87 C20.96 87.02 26.92 87.04 33.06 87.06 C34.91 87.07 36.76 87.08 38.66 87.09 C66.69 87.81 66.69 87.81 90.78 75.37 C98.64 67.06 99.15 55.93 99 45 C98.32 35.65 96.29 27.88 89.44 21.25 C74.58 9.06 51.02 11.85 33 11.94 C24.09 11.97 24.09 11.97 15 12 Z " fill="#FFFFFF" transform="translate(1031,1822)"/>
<path d="M0 0 C88.22 0 88.22 0 102.88 13.12 C111.65 22.82 114.4 35.07 114.31 47.75 C114.31 49.06 114.31 49.06 114.3 50.39 C114.06 63.74 110.86 75.39 101.7 85.38 C91.96 94.67 77.59 99.14 64.27 99.11 C63.15 99.11 62.04 99.11 60.89 99.11 C59.73 99.11 58.57 99.1 57.38 99.1 C56.31 99.1 55.23 99.1 54.12 99.09 C50.12 99.09 46.12 99.08 42.12 99.06 C28.7 99.03 28.7 99.03 15 99 C15 121.11 15 143.22 15 166 C10.05 166 5.1 166 0 166 C0 111.22 0 56.44 0 0 Z M15 12 C15 36.75 15 61.5 15 87 C20.96 87.02 26.92 87.04 33.06 87.06 C34.91 87.07 36.76 87.08 38.66 87.09 C66.69 87.81 66.69 87.81 90.78 75.37 C98.64 67.06 99.15 55.93 99 45 C98.32 35.65 96.29 27.88 89.44 21.25 C74.58 9.06 51.02 11.85 33 11.94 C24.09 11.97 24.09 11.97 15 12 Z " fill="#FFFFFF" transform="translate(751,1822)"/>
</svg>
