<?xml version="1.0" encoding="UTF-8"?>
<!-- Generator: https://ezgif.com/png-to-svg -->
<svg version="1.1" xmlns="http://www.w3.org/2000/svg" width="634" height="222">
<path d="M0 0 C4.52 -0.09 9.03 -0.15 13.55 -0.18 C14.93 -0.2 16.31 -0.21 17.69 -0.24 C34.13 -0.49 50.65 3.37 62.86 15.12 C76.22 29.99 80.49 48.49 79.95 68.06 C79.2 81.99 74.66 95.37 65.59 106.05 C65.04 106.72 64.49 107.39 63.92 108.08 C53.89 119.23 39.38 123.46 24.8 124.25 C2.51 124.51 2.51 124.51 -2.41 122.05 C-2.41 144.49 -2.41 166.93 -2.41 190.05 C-17.26 190.05 -32.11 190.05 -47.41 190.05 C-47.41 128.01 -47.41 65.97 -47.41 2.05 C-42.04 1.38 -37.06 0.88 -31.69 0.73 C-30.61 0.7 -30.61 0.7 -29.51 0.67 C-27.16 0.6 -24.82 0.54 -22.47 0.48 C-21.66 0.46 -20.86 0.44 -20.03 0.42 C-13.35 0.26 -6.68 0.13 0 0 Z M-1.41 35.05 C-1.41 53.53 -1.41 72.01 -1.41 91.05 C15.73 91.98 15.73 91.98 28.47 84.36 C32.99 77.31 34.11 70.37 33.97 62.11 C33.96 61.23 33.95 60.36 33.94 59.45 C33.72 49.31 33.72 49.31 29.3 40.42 C21 32.62 8.96 35.05 -1.41 35.05 Z " fill="#FFFFFF" transform="translate(360.4078369140625,12.95318603515625)"/>
<path d="M0 0 C38.28 0 76.56 0 116 0 C116 11.88 116 23.76 116 36 C115 37 115 37 112.22 37.12 C110.98 37.12 109.74 37.12 108.46 37.11 C107.78 37.11 107.09 37.11 106.39 37.11 C104.12 37.11 101.86 37.11 99.59 37.1 C98.02 37.1 96.45 37.09 94.89 37.09 C90.75 37.09 86.62 37.08 82.48 37.07 C77.53 37.06 72.57 37.05 67.61 37.05 C60.07 37.04 52.54 37.02 45 37 C45 50.2 45 63.4 45 77 C69.75 77.5 69.75 77.5 95 78 C95 88.56 95 99.12 95 110 C78.83 110.33 62.66 110.66 46 111 C45.67 124.2 45.34 137.4 45 151 C69.09 151 93.18 151 118 151 C118 163.21 118 175.42 118 188 C79.06 188 40.12 188 0 188 C0 125.96 0 63.92 0 0 Z " fill="#FFFFFF" transform="translate(171,15)"/>
<path d="M0 0 C14.85 -0.02 29.69 -0.04 44.54 -0.05 C51.43 -0.06 58.33 -0.06 65.22 -0.08 C71.86 -0.09 78.51 -0.09 85.16 -0.09 C87.7 -0.1 90.24 -0.1 92.78 -0.11 C96.33 -0.11 99.88 -0.11 103.42 -0.11 C105.02 -0.12 105.02 -0.12 106.64 -0.12 C108.08 -0.12 108.08 -0.12 109.55 -0.12 C110.39 -0.12 111.23 -0.12 112.1 -0.12 C114 0 114 0 115 1 C115.1 3.58 115.14 6.14 115.13 8.72 C115.13 9.49 115.13 10.26 115.14 11.06 C115.14 12.7 115.13 14.34 115.13 15.97 C115.13 18.49 115.13 21 115.14 23.52 C115.14 25.11 115.13 26.69 115.13 28.28 C115.13 29.04 115.14 29.8 115.14 30.58 C115.11 35.89 115.11 35.89 114 37 C111.82 37.09 109.64 37.12 107.46 37.11 C106.78 37.11 106.09 37.11 105.39 37.11 C103.12 37.11 100.86 37.11 98.59 37.1 C97.02 37.1 95.45 37.09 93.89 37.09 C89.75 37.09 85.62 37.08 81.48 37.07 C76.53 37.06 71.57 37.05 66.61 37.05 C59.07 37.04 51.54 37.02 44 37 C44.5 56.8 44.5 56.8 45 77 C69.75 77.5 69.75 77.5 95 78 C95 88.56 95 99.12 95 110 C78.17 110 61.34 110 44 110 C44.5 129.8 44.5 129.8 45 150 C68.76 150.33 92.52 150.66 117 151 C117 163.21 117 175.42 117 188 C101.89 188.02 86.79 188.04 71.68 188.05 C64.66 188.06 57.65 188.06 50.64 188.08 C43.87 188.09 37.11 188.09 30.35 188.09 C27.76 188.1 25.17 188.1 22.59 188.11 C18.98 188.11 15.37 188.11 11.76 188.11 C10.14 188.12 10.14 188.12 8.49 188.12 C7.51 188.12 6.53 188.12 5.52 188.12 C4.67 188.12 3.82 188.12 2.93 188.12 C1 188 1 188 0 187 C-0.1 184.58 -0.13 182.2 -0.12 179.78 C-0.12 179.02 -0.12 178.25 -0.12 177.46 C-0.12 174.88 -0.12 172.3 -0.11 169.72 C-0.11 167.88 -0.11 166.04 -0.11 164.19 C-0.11 159.17 -0.11 154.16 -0.1 149.14 C-0.1 143.9 -0.09 138.66 -0.09 133.42 C-0.09 123.5 -0.08 113.57 -0.07 103.64 C-0.06 92.34 -0.06 81.04 -0.05 69.75 C-0.04 46.5 -0.02 23.25 0 0 Z " fill="#FFFFFF" transform="translate(461,15)"/>
<path d="M0 0 C4.02 -0.08 8.03 -0.12 12.05 -0.16 C13.21 -0.18 14.36 -0.2 15.55 -0.22 C32.28 -0.29 45.91 4.06 58.08 15.7 C71.43 29.68 74.78 47.11 74.51 65.79 C74.06 82.26 69.13 96.99 57.17 108.6 C53.13 112.19 49.28 114.84 44.37 117.09 C43.4 117.57 42.42 118.06 41.42 118.56 C26.39 124.84 8.19 123.07 -7.63 121.09 C-7.63 143.53 -7.63 165.97 -7.63 189.09 C-22.15 189.09 -36.67 189.09 -51.63 189.09 C-51.63 127.38 -51.63 65.67 -51.63 2.09 C-46.71 1.27 -42.09 0.88 -37.13 0.77 C-36.31 0.75 -35.49 0.73 -34.65 0.71 C-31.98 0.65 -29.31 0.59 -26.63 0.53 C-25.72 0.51 -24.81 0.49 -23.87 0.47 C-18.32 0.35 -12.77 0.24 -7.22 0.14 C-4.81 0.09 -2.41 0.05 0 0 Z M-6.63 34.09 C-8.31 35.77 -7.76 37.83 -7.76 40.13 C-7.77 41.2 -7.77 42.28 -7.77 43.39 C-7.77 44.56 -7.77 45.73 -7.77 46.93 C-7.77 48.12 -7.77 49.32 -7.77 50.54 C-7.77 53.07 -7.77 55.6 -7.76 58.13 C-7.76 62.01 -7.76 65.89 -7.77 69.77 C-7.77 72.22 -7.77 74.67 -7.77 77.12 C-7.77 78.29 -7.77 79.45 -7.77 80.66 C-7.77 81.73 -7.77 82.81 -7.76 83.92 C-7.76 84.87 -7.76 85.83 -7.76 86.81 C-7.78 89.12 -7.78 89.12 -6.63 91.09 C8.72 92.19 8.72 92.19 22.37 86.09 C28.59 80.35 29.87 71.53 30.37 63.42 C30.37 54.68 30.1 45.06 24.37 38.09 C15.6 31.29 3.83 32.65 -6.63 34.09 Z " fill="#FFFFFF" transform="translate(75.63427734375,13.90869140625)"/>
</svg>
