<?xml version="1.0" encoding="UTF-8"?>
<!-- Generator: https://ezgif.com/png-to-svg -->
<svg version="1.1" xmlns="http://www.w3.org/2000/svg" width="1042" height="625">
<path d="M0 0 C31.13 27.92 50.42 67.28 53.47 109.02 C53.6 113.36 53.6 117.68 53.47 122.02 C49.07 123.46 44.64 124.84 40.21 126.18 C38.38 126.74 36.55 127.32 34.73 127.9 C16.89 133.6 0.62 134.98 -18.03 134.74 C-20.81 134.72 -23.6 134.72 -26.39 134.72 C-32.99 134.7 -39.59 134.65 -46.19 134.58 C-53.76 134.51 -61.32 134.47 -68.89 134.44 C-86.77 134.36 -104.65 134.2 -122.53 134.02 C-124.77 134 -127.01 133.97 -129.25 133.95 C-149.34 133.75 -169.44 133.48 -189.53 133.02 C-175.31 118.8 -138.7 118.94 -120.23 118.91 C-112.07 118.92 -103.91 119.04 -95.75 119.21 C-89.88 119.31 -84.01 119.35 -78.14 119.39 C-49.93 119.64 -21.73 120.31 6.47 121.02 C0.69 86.45 -9.49 56.01 -32.53 29.02 C-33.21 28.21 -33.9 27.41 -34.6 26.57 C-57.16 0.73 -87.23 -16.22 -120.53 -23.98 C-121.19 -24.14 -121.84 -24.31 -122.52 -24.48 C-132.76 -26.96 -143.13 -27.33 -153.63 -27.45 C-155.12 -27.47 -156.62 -27.5 -158.12 -27.53 C-167.9 -27.72 -175.73 -26.63 -184.53 -21.98 C-185.65 -21.42 -185.65 -21.42 -186.79 -20.84 C-188.83 -19.78 -190.8 -18.65 -192.78 -17.48 C-193.49 -17.06 -194.2 -16.64 -194.93 -16.21 C-202.46 -11.62 -209.2 -6.13 -215.89 -0.39 C-217.27 0.79 -218.66 1.96 -220.06 3.12 C-255.36 32.85 -268.43 77.92 -272.53 122.02 C-276.93 123.46 -281.35 124.84 -285.78 126.18 C-287.63 126.74 -289.48 127.32 -291.32 127.9 C-308.11 133.15 -323.28 135 -340.81 134.74 C-343.26 134.73 -345.71 134.72 -348.16 134.72 C-354.61 134.7 -361.06 134.63 -367.5 134.56 C-374.15 134.49 -380.8 134.46 -387.45 134.43 C-402.47 134.35 -417.5 134.2 -432.53 134.02 C-434.5 134 -436.47 133.97 -438.43 133.95 C-456.13 133.75 -473.83 133.48 -491.53 133.02 C-478 119.49 -443.34 118.94 -425.6 118.91 C-418.33 118.92 -411.07 119.04 -403.8 119.21 C-398.55 119.31 -393.3 119.35 -388.05 119.39 C-364.87 119.62 -341.69 120.23 -318.53 121.02 C-318.43 119.83 -318.33 118.65 -318.22 117.42 C-314.48 75.11 -293.3 36.62 -261.66 8.59 C-238.74 -10.61 -212.31 -20.82 -183.78 -28.67 C-182.27 -29.09 -182.27 -29.09 -180.73 -29.52 C-115.72 -47.61 -53.16 -46.56 0 0 Z " fill="#030606" transform="translate(657.529541015625,111.980712890625)"/>
<path d="M0 0 C1.27 -0 2.54 -0 3.84 -0.01 C6.45 -0.01 9.06 -0.01 11.67 -0.02 C40.92 -0.06 70.17 -0.03 99.42 0.02 C80.35 19.09 33.86 14.2 9.12 14.22 C0.39 14.21 -8.33 14.15 -17.06 14.07 C-25.69 14 -34.31 14.01 -42.93 14.04 C-56.48 14.08 -70.03 14.07 -83.58 14.02 C-82.98 17.8 -82.37 21.59 -81.75 25.37 C-81.5 26.95 -81.5 26.95 -81.24 28.57 C-75.97 60.83 -61.01 89.36 -38.58 113.02 C-37.24 114.45 -37.24 114.45 -35.87 115.92 C-7.01 146.25 34.09 161.54 75.42 162.9 C77.09 162.94 78.76 162.98 80.42 163.02 C81.15 163.04 81.87 163.06 82.62 163.09 C94.46 163.36 102.52 159.88 112.42 154.02 C113.09 153.63 113.76 153.25 114.45 152.85 C124.74 146.95 133.75 140.08 142.42 132.02 C142.97 131.51 143.53 131 144.1 130.47 C157.63 117.89 168 103.43 176.42 87.02 C176.74 86.4 177.06 85.79 177.38 85.16 C189.14 62.3 192.74 38.4 194.42 13.02 C200.25 11.29 206.08 9.58 211.92 7.91 C215.74 6.81 219.55 5.67 223.33 4.44 C232.1 1.7 240.13 0.72 249.32 0.85 C250.45 0.86 251.58 0.87 252.74 0.87 C265.4 0.99 278.05 1.3 290.7 1.64 C293.22 1.7 295.74 1.77 298.26 1.83 C303.49 1.97 308.72 2.1 313.95 2.24 C319.28 2.38 324.61 2.52 329.93 2.66 C336.44 2.83 342.96 2.99 349.47 3.17 C351.92 3.23 354.38 3.29 356.83 3.36 C370.38 3.7 383.9 4.15 397.42 5.02 C393.2 9.24 385.5 10.24 379.83 11.87 C378.1 12.37 376.38 12.89 374.66 13.43 C358.91 18.36 344.01 18.58 327.61 18.08 C323.72 17.97 319.83 17.9 315.94 17.82 C306.67 17.64 297.4 17.4 288.13 17.15 C284.64 17.05 281.14 16.97 277.64 16.88 C274.24 16.8 270.83 16.71 267.43 16.62 C265.82 16.57 264.22 16.53 262.61 16.49 C260.38 16.44 258.15 16.38 255.92 16.31 C254.66 16.28 253.4 16.25 252.1 16.21 C248.16 16 244.33 15.55 240.42 15.02 C240.45 16.31 240.49 17.6 240.52 18.93 C240.52 23.92 239.81 28.57 238.8 33.45 C238.62 34.32 238.44 35.19 238.25 36.08 C232.35 63.37 219.74 88.01 201.42 109.02 C201 109.51 200.57 110 200.14 110.5 C193.82 117.78 187.13 124.2 179.42 130.02 C178.89 130.42 178.35 130.83 177.8 131.24 C134.11 164.04 63.5 183.06 9.09 175.77 C-34.48 169.16 -73.48 145.78 -100.01 110.56 C-120.51 82.34 -131.78 47.88 -130.58 13.02 C-126.17 11.57 -121.74 10.2 -117.31 8.86 C-115.49 8.3 -113.68 7.72 -111.87 7.14 C-94.25 1.45 -77.71 -0.02 -59.3 0.07 C-55.47 0.08 -51.63 0.06 -47.79 0.03 C-39.84 -0.01 -31.88 -0.01 -23.93 0.01 C-15.95 0.02 -7.98 0.01 0 0 Z " fill="#030606" transform="translate(466.5791015625,283.9833984375)"/>
<path d="M0 0 C1.65 0 3.3 0 5 0 C5.21 0.84 5.41 1.68 5.63 2.54 C6.39 5.64 7.16 8.75 7.94 11.85 C8.27 13.2 8.6 14.54 8.93 15.89 C9.41 17.82 9.89 19.75 10.37 21.68 C10.66 22.84 10.95 24 11.24 25.2 C11.88 27.93 11.88 27.93 13 30 C13.24 29.16 13.47 28.32 13.72 27.46 C14.6 24.36 15.48 21.25 16.36 18.15 C16.74 16.8 17.13 15.46 17.51 14.11 C18.05 12.18 18.6 10.25 19.15 8.32 C19.48 7.16 19.81 6 20.15 4.8 C21 2 21 2 22 0 C23.65 0 25.3 0 27 0 C29.97 10.23 32.94 20.46 36 31 C38.26 21.55 38.26 21.55 40.52 12.09 C40.8 10.92 41.08 9.75 41.37 8.54 C41.66 7.33 41.95 6.13 42.24 4.89 C43 2 43 2 44 0 C45.32 0 46.64 0 48 0 C47.41 5.38 46.51 10.53 45.15 15.78 C44.98 16.48 44.8 17.18 44.62 17.9 C44.06 20.1 43.5 22.3 42.94 24.5 C42.56 26.01 42.18 27.51 41.79 29.02 C40.87 32.68 39.94 36.34 39 40 C36.52 40.5 36.52 40.5 34 41 C30.52 30.71 27.21 20.38 24 10 C21.03 20.23 18.06 30.46 15 41 C13.35 41 11.7 41 10 41 C8.57 35.48 7.15 29.97 5.73 24.45 C5.24 22.57 4.76 20.69 4.27 18.81 C3.58 16.12 2.88 13.42 2.19 10.73 C1.97 9.88 1.75 9.04 1.52 8.17 C0 2.23 0 2.23 0 0 Z " fill="#000000" transform="translate(604,508)"/>
<path d="M0 0 C5.94 5.86 6.23 10.9 6.31 18.81 C6.34 19.7 6.37 20.59 6.4 21.51 C6.46 27.21 5.84 30.5 2 35 C-1.7 38.34 -4.21 39.86 -9.25 40.25 C-14.68 39.89 -18.48 38.56 -22.31 34.62 C-27.13 27.13 -26.88 18.63 -26 10 C-24.59 4.63 -21.72 0.95 -17 -2 C-11.12 -4.35 -5.19 -3.39 0 0 Z M-20 6 C-22.88 13.01 -23.55 21.87 -20.81 29.06 C-18.76 32.39 -17.45 34.13 -14 36 C-9.43 36.81 -6.11 36.64 -2.06 34.31 C2.15 29.59 2.36 24.75 2.38 18.62 C2.4 17.9 2.42 17.17 2.45 16.41 C2.48 10.83 1.21 7.58 -2 3 C-8.65 -1.43 -14.93 0.31 -20 6 Z " fill="#000000" transform="translate(594,510)"/>
<path d="M0 0 C1.94 3.12 2.2 5.35 2 9 C0.68 9 -0.64 9 -2 9 C-2.27 8.05 -2.54 7.1 -2.81 6.12 C-3.75 2.75 -3.75 2.75 -7 1 C-11.06 0.42 -14.79 0.47 -18.56 2.12 C-20.22 4.01 -20.22 4.01 -20.62 6.94 C-20.28 10.16 -20.28 10.16 -17.69 12.12 C-14.75 13.83 -11.65 14.85 -8.44 15.94 C-3.06 17.79 0.38 19.76 3 25 C3.56 29.14 3.2 30.7 0.88 34.25 C-3.09 38.04 -6 38.81 -11.38 39.31 C-16.52 38.87 -21.1 37.78 -24.94 34.19 C-26.25 31.48 -26.66 28.97 -27 26 C-25.68 26 -24.36 26 -23 26 C-22.59 26.95 -22.17 27.9 -21.75 28.88 C-19.9 32.18 -19.39 32.73 -16 34 C-13.77 34.28 -13.77 34.28 -11.5 34.19 C-10.37 34.18 -10.37 34.18 -9.22 34.17 C-7.04 34 -5.1 33.6 -3 33 C-1.77 27.88 -1.77 27.88 -3 23 C-4.98 22.29 -6.99 21.63 -9 21 C-11.05 20.23 -13.09 19.44 -15.12 18.62 C-16.14 18.23 -17.15 17.83 -18.2 17.41 C-21.13 15.94 -22.9 14.51 -25 12 C-25.97 8.74 -26.16 6.68 -25.38 3.38 C-23.37 -0.08 -20.85 -2.26 -17.12 -3.75 C-10.55 -4.52 -5.4 -4.02 0 0 Z " fill="#000000" transform="translate(682,511)"/>
<path d="M0 0 C1.94 3.12 2.2 5.35 2 9 C0.68 9 -0.64 9 -2 9 C-2.27 8.05 -2.54 7.1 -2.81 6.12 C-3.75 2.75 -3.75 2.75 -7 1 C-11.06 0.42 -14.79 0.47 -18.56 2.12 C-20.22 4.01 -20.22 4.01 -20.62 6.94 C-20.28 10.16 -20.28 10.16 -17.69 12.12 C-14.75 13.83 -11.65 14.85 -8.44 15.94 C-3.06 17.79 0.38 19.76 3 25 C3.56 29.14 3.2 30.7 0.88 34.25 C-3.09 38.04 -6 38.81 -11.38 39.31 C-16.52 38.87 -21.1 37.78 -24.94 34.19 C-26.25 31.48 -26.66 28.97 -27 26 C-25.68 26 -24.36 26 -23 26 C-22.59 26.95 -22.18 27.9 -21.75 28.88 C-19.9 32.18 -19.39 32.73 -16 34 C-13.77 34.28 -13.77 34.28 -11.5 34.19 C-10.37 34.18 -10.37 34.18 -9.22 34.17 C-7.04 34 -5.1 33.6 -3 33 C-1.77 27.88 -1.77 27.88 -3 23 C-4.98 22.29 -6.99 21.63 -9 21 C-11.05 20.23 -13.09 19.44 -15.12 18.62 C-16.14 18.23 -17.15 17.83 -18.2 17.41 C-21.13 15.94 -22.9 14.51 -25 12 C-25.97 8.74 -26.16 6.68 -25.38 3.38 C-23.37 -0.08 -20.85 -2.26 -17.12 -3.75 C-10.55 -4.52 -5.4 -4.02 0 0 Z " fill="#000000" transform="translate(520,511)"/>
<path d="M0 0 C1.32 0 2.64 0 4 0 C4 6.27 4 12.54 4 19 C11.26 19 18.52 19 26 19 C26 12.73 26 6.46 26 0 C27.32 0 28.64 0 30 0 C30 13.53 30 27.06 30 41 C28.68 41 27.36 41 26 41 C26 35.06 26 29.12 26 23 C18.74 23 11.48 23 4 23 C4 28.94 4 34.88 4 41 C2.68 41 1.36 41 0 41 C0 27.47 0 13.94 0 0 Z " fill="#000000" transform="translate(530,508)"/>
<path d="M0 0 C20 0 20 0 26 4 C28.35 6.99 28.42 10.22 28.32 13.97 C27.79 17.35 26.19 19.44 24 22 C20.26 24.66 16.15 24.23 11.75 24.12 C9.19 24.08 6.63 24.04 4 24 C4 29.61 4 35.22 4 41 C2.68 41 1.36 41 0 41 C0 27.47 0 13.94 0 0 Z M4 3 C4 8.94 4 14.88 4 21 C13.52 21.65 13.52 21.65 22 18 C24.2 15.32 24 13.96 23.81 10.44 C22.89 6.5 22.89 6.5 20 4 C14.84 2.28 9.41 2.95 4 3 Z " fill="#000000" transform="translate(416,508)"/>
<path d="M0 0 C20 0 20 0 26 4 C28.35 6.99 28.42 10.22 28.32 13.97 C27.79 17.35 26.19 19.44 24 22 C20.26 24.66 16.15 24.23 11.75 24.12 C9.19 24.08 6.63 24.04 4 24 C4 29.61 4 35.22 4 41 C2.68 41 1.36 41 0 41 C0 27.47 0 13.94 0 0 Z M4 3 C4 8.94 4 14.88 4 21 C13.52 21.65 13.52 21.65 22 18 C24.2 15.32 24 13.96 23.81 10.44 C22.89 6.5 22.89 6.5 20 4 C14.84 2.28 9.41 2.95 4 3 Z " fill="#000000" transform="translate(350,508)"/>
<path d="M0 0 C8.25 0 16.5 0 25 0 C25 0.99 25 1.98 25 3 C18.07 3 11.14 3 4 3 C4 7.95 4 12.9 4 18 C9.94 18 15.88 18 22 18 C22 18.99 22 19.98 22 21 C16.06 21 10.12 21 4 21 C4 26.61 4 32.22 4 38 C10.93 38 17.86 38 25 38 C25 38.99 25 39.98 25 41 C16.75 41 8.5 41 0 41 C0 27.47 0 13.94 0 0 Z " fill="#000000" transform="translate(451,508)"/>
<path d="M0 0 C8.25 0 16.5 0 25 0 C25 0.99 25 1.98 25 3 C18.07 3 11.14 3 4 3 C4 7.95 4 12.9 4 18 C9.94 18 15.88 18 22 18 C22 18.99 22 19.98 22 21 C16.06 21 10.12 21 4 21 C4 26.61 4 32.22 4 38 C10.93 38 17.86 38 25 38 C25 38.99 25 39.98 25 41 C16.75 41 8.5 41 0 41 C0 27.47 0 13.94 0 0 Z " fill="#000000" transform="translate(385,508)"/>
</svg>
